<svg id="Capa_1" data-name="Capa 1" xmlns="http://www.w3.org/2000/svg" viewBox="0 0 571.33 438.6"><title>ic_bussines</title><path d="M379.26,273l-32.64-24.26-19.24-14.4-9.63-7.14-14.22,11.33-5.19,4.13,3.24-24.73,6.73-23.67.24-.82-27.39-7.32a32.8,32.8,0,0,0-16.05-.3l-42.2,9.68-70.36-50L91,240.87l89,48.4,18.42,27.09a63.31,63.31,0,0,0,19.3,18.42l57.81,40.94c57-13.64,107.8-56.22,109.64-98.62A54,54,0,0,0,379.26,273Z" transform="translate(-20.84 -31)" style="fill:#ebb886"/><path d="M423.82,307.57a19,19,0,0,0-1.95-1.83l-8.2-7.14-22.84-17.18c-.65-.47-3.14-2.41-5.67-4.32-2.49,10.47-9.67,18.13-24,21.55-1.44,12.3-11.46,20.39-28.07,25.26-2.78,12.11-12.34,20.16-27.59,24.81-4.63,14.85-18.67,25.67-30,27l26.77,19c25.15,17.77,38.9-7.08,31.23-15.16l2.83,2.06c24.26,18.36,41-8,28-24,18.95,18.41,44-5.9,30.17-25.79a30.2,30.2,0,0,0,2.42,1.88,6.81,6.81,0,0,0,.94.71C418.45,348.23,437.28,322.09,423.82,307.57Z" transform="translate(-20.84 -31)" style="fill:#e0b080"/><path d="M230.26,311.2A17.19,17.19,0,0,0,237.37,288l-1.48-2.79a17.19,17.19,0,0,0-23.23-7.11L182,294.37a16,16,0,0,0-6.64,21.69l3,5.74a15,15,0,0,0,20.24,6.2Z" transform="translate(-20.84 -31)" style="fill:#ffcf9f"/><path d="M261.37,337a17.18,17.18,0,0,0,7.34-23.34l-1.48-2.79a17.17,17.17,0,0,0-23-7.23l-39,20a16,16,0,0,0-6.85,21.8l3,5.72a15,15,0,0,0,20,6.3Z" transform="translate(-20.84 -31)" style="fill:#ffcf9f"/><path d="M286,366.08a17.46,17.46,0,0,0,7.23-23.61l-1.51-2.84a17.45,17.45,0,0,0-23.61-7.22L237,349a16.3,16.3,0,0,0-6.74,22l3.1,5.83a15.22,15.22,0,0,0,20.58,6.3Z" transform="translate(-20.84 -31)" style="fill:#ffcf9f"/><path d="M311.49,387c6.54-3.48,8.81-12,5.07-19l-1.24-2.35c-3.74-7-12.07-9.92-18.61-6.45l-23.95,12.72c-6.11,3.25-8.23,11.2-4.74,17.77l2.56,4.83c3.26,6.13,10.52,8.65,16.23,5.62Z" transform="translate(-20.84 -31)" style="fill:#ffcf9f"/><path d="M449,150.74,390,191.1s-45.31-7.78-50.39-6.24l-31.34,9.38-20.42,6.08a14.09,14.09,0,0,0-9.21,8.68l-18.77,52.06a12.73,12.73,0,0,0,7.5,16.29l3.84,1.47A26.78,26.78,0,0,0,306,263L313,243.64a11.34,11.34,0,0,1,6.91-6.84l6.61-2.24.83-.24s95.85,72.6,96.44,73.25l20.71-22.21,59.31-36.57Z" transform="translate(-20.84 -31)" style="fill:#ffcf9f"/><polygon points="133.48 267.65 93.13 242.11 159.85 126.39 202.12 157.61 133.48 267.65" style="fill:#ededed"/><path d="M20.84,37.65V231.82C64.39,259.3,107,285.36,107,285.36l73.68-128S94.08,92.2,20.84,37.65Z" transform="translate(-20.84 -31)" style="fill:#f0cc01"/><polygon points="437.85 261 478.19 235.46 411.48 119.74 369.2 150.96 437.85 261" style="fill:#ededed"/><path d="M592.16,31V225.17C548.6,252.65,506,278.71,506,278.71l-73.68-128S518.92,85.55,592.16,31Z" transform="translate(-20.84 -31)" style="fill:#007161"/><circle cx="70.6" cy="214.11" r="9.33" style="fill:#fff"/><circle cx="43.45" cy="195.45" r="9.33" style="fill:#fff"/><circle cx="494.88" cy="214.11" r="9.33" style="fill:#fff"/><circle cx="522.03" cy="195.45" r="9.33" style="fill:#fff"/><path d="M303.32,155.82a5.09,5.09,0,0,1-5.09-5.09V114a5.09,5.09,0,0,1,10.18,0v36.7A5.09,5.09,0,0,1,303.32,155.82Z" transform="translate(-20.84 -31)"/><path d="M303.32,469.6a5.09,5.09,0,0,1-5.09-5.09V427.82a5.09,5.09,0,0,1,10.18,0v36.69A5.09,5.09,0,0,1,303.32,469.6Z" transform="translate(-20.84 -31)"/><path d="M427.24,418.28a5,5,0,0,1-3.6-1.5l-25.95-25.94a5.09,5.09,0,0,1,7.2-7.2l25.95,25.95a5.1,5.1,0,0,1-3.6,8.69Z" transform="translate(-20.84 -31)"/><path d="M179.41,418.28a5.1,5.1,0,0,1-3.6-8.69l25.95-25.95a5.09,5.09,0,0,1,7.2,7.2l-26,25.94A5.08,5.08,0,0,1,179.41,418.28Z" transform="translate(-20.84 -31)"/><path d="M368.89,456.88a5.08,5.08,0,0,1-4.72-3.19l-13.75-34.08a5.09,5.09,0,1,1,9.43-3.81l13.75,34.08a5.07,5.07,0,0,1-2.81,6.62A5,5,0,0,1,368.89,456.88Z" transform="translate(-20.84 -31)"/><path d="M251.51,165.93a5.09,5.09,0,0,1-4.72-3.18L233,128.66a5.09,5.09,0,0,1,9.44-3.81l13.75,34.09a5.09,5.09,0,0,1-2.81,6.62A5.15,5.15,0,0,1,251.51,165.93Z" transform="translate(-20.84 -31)"/><path d="M140.81,359.92a5.09,5.09,0,0,1-1.91-9.81L173,336.37a5.09,5.09,0,0,1,3.81,9.43l-34.09,13.75A5.1,5.1,0,0,1,140.81,359.92Z" transform="translate(-20.84 -31)"/><path d="M464.59,362.92a5,5,0,0,1-2-.41l-33.76-14.35a5.09,5.09,0,0,1,4-9.37l33.75,14.35a5.09,5.09,0,0,1-2,9.78Z" transform="translate(-20.84 -31)"/><path d="M234.76,455.64a5,5,0,0,1-2-.41,5.1,5.1,0,0,1-2.7-6.68l14.35-33.75a5.09,5.09,0,0,1,9.37,4l-14.35,33.75A5.09,5.09,0,0,1,234.76,455.64Z" transform="translate(-20.84 -31)"/><path d="M357.52,166.84a5,5,0,0,1-2-.41,5.1,5.1,0,0,1-2.7-6.67L367.19,126a5.09,5.09,0,0,1,9.37,4l-14.35,33.75A5.08,5.08,0,0,1,357.52,166.84Z" transform="translate(-20.84 -31)"/></svg>