<?xml version="1.0" encoding="utf-8"?>
<!-- Generator: Adobe Illustrator 23.0.2, SVG Export Plug-In . SVG Version: 6.00 Build 0)  -->
<svg version="1.1" id="Capa_1" xmlns="http://www.w3.org/2000/svg" xmlns:xlink="http://www.w3.org/1999/xlink" x="0px" y="0px"
	 viewBox="0 0 220 224.1" style="enable-background:new 0 0 220 224.1;" xml:space="preserve">
<style type="text/css">
	.st0{fill:#007161;}
	.st1{fill:#FFFFFF;}
</style>
<circle class="st0" cx="110" cy="113" r="110"/>
<title>ic_cloth</title>
<path class="st1" d="M169.5,112.7c1.3,0,2.4-1.1,2.4-2.4c0,0,0,0,0,0V78.3c0-9.6-9.6-16.2-17.8-20C148.3,42,137.3,39,136.8,38.9
	h-0.1h-0.1l-0.2,0H86c-0.1,0-0.2,0-0.2,0c0,0-0.1,0-0.1,0h-0.1C85,39,74.1,42,68.3,58.1C60,61.9,50.1,68.6,50.1,78.3V164
	c0,1.1,0.7,2,1.8,2.3l15.6,4.2V187c0,1.3,1.1,2.4,2.4,2.4h82.3c1.3,0,2.4-1.1,2.4-2.4v-16.5l15.6-4.2c1-0.3,1.7-1.2,1.8-2.3v-45.6
	c-0.1-1.3-1.2-2.3-2.5-2.2c-1.2,0.1-2.2,1-2.2,2.2v30.3l-12.6,3.4V92.7c0-1.3-1.1-2.4-2.4-2.4c-1.3,0-2.4,1.1-2.4,2.4v81.6H92
	c-1.3,0.1-2.3,1.2-2.2,2.5c0.1,1.2,1,2.2,2.2,2.2h57.8v5.5H72.2v-5.5h12c1.3,0.1,2.4-0.9,2.5-2.2c0.1-1.3-0.9-2.4-2.2-2.5
	c-0.1,0-0.2,0-0.3,0h-12V92.7c0-1.3-1.1-2.4-2.4-2.4s-2.4,1.1-2.4,2.4v59.4l-12.6-3.4V78.3C54.9,71.1,63.4,65.5,71,62l0.1,0
	c2.7-1.2,5.5-2.2,8.3-3.1L94,66.4v37.8c0,1.3,1.1,2.4,2.4,2.4c1.3,0,2.4-1.1,2.4-2.4V68.9l11.2,5.8c0.7,0.4,1.5,0.4,2.2,0l11.9-6.2
	v35.7c-0.1,1.3,0.9,2.4,2.2,2.5s2.4-0.9,2.5-2.2c0-0.1,0-0.2,0-0.3V66.1l13.9-7.2c2.9,0.9,5.8,2,8.6,3.2l0.1,0
	c7.6,3.5,15.8,9.1,15.8,16.1v32.1C167.1,111.6,168.2,112.7,169.5,112.7L169.5,112.7z M167.1,153.6v8.5l-12.6,3.4V157L167.1,153.6z
	 M67.5,157v8.5l-12.5-3.4v-8.5L67.5,157z M147.8,55.6c-2.6-0.9-4.4-1.5-4.8-1.6h-0.1c-0.6-0.2-1.2-0.1-1.7,0.2l-12.7,6.6
	c-0.4-1.2-1.8-1.9-3-1.4c-0.9,0.3-1.6,1.2-1.6,2.2v1.6l-11.4,5.9l0.3-0.3l14.6-15l0,0l5.4-5.6l4.1-4.2C139.1,45,144,48,147.8,55.6z
	 M102.2,54.4h17.9l-8.9,9.2L102.2,54.4z M127.8,46.5l-3.1,3.2H97.6l-5.9-6.2h38.9L127.8,46.5z M85.4,44l22.4,23.1l-0.5,0.5l-0.3,0.3
	l-8.3-4.3v-1.9c0-1.3-1.1-2.4-2.4-2.4c-1.1,0-2.1,0.8-2.3,1.9l-13.3-6.8c-0.1,0-0.2-0.1-0.2-0.1h-0.1l-0.2-0.1h-0.1l-0.2,0H80
	c-0.1,0-0.2,0-0.3,0h-0.1h-0.2h-0.1l-0.3,0.1c-0.3,0.1-2.1,0.6-4.6,1.5C78.3,47.9,83.2,45,85.4,44z"/>
<path class="st1" d="M136.1,133c0-1.9-1.6-3.5-3.5-3.5l0,0H89.8c-1.9,0-3.5,1.5-3.5,3.5c0,0,0,0,0,0c0,10.8-6,20.7-15.5,25.7
	c-1.1,0.6-1.9,1.8-1.8,3.1v27.2c0,1.9,1.6,3.5,3.5,3.5H150c1.9,0,3.5-1.6,3.5-3.5c0,0,0,0,0,0v-27.2c0-1.3-0.7-2.5-1.9-3.1
	C142.1,153.6,136.1,143.7,136.1,133z M146.5,185.4H75.9v-21.7c9.7-5.9,16.1-16,17.2-27.3h36.3c1.1,11.3,7.5,21.4,17.2,27.3V185.4z"
	/>
</svg>
