<svg id="Capa_1" data-name="Capa 1" xmlns="http://www.w3.org/2000/svg" viewBox="0 0 230 229.93"><title>ic_food</title><path d="M85.21,108l-2.44,13.7,2.44,29.85s9.3,24.47,21.53,30.34c0,0,42.58,27.41,78.79,2.45,0,0,20.56-23.49,23.49-37.68L211.47,108s-16.64,3.91-22,7.34c0,0-17.13,2-27.41-3.92,0,0-10.76-10.76-28.87-1.95C133.17,109.43,105.28,120.68,85.21,108Z" transform="translate(-26 -14.03)" style="fill:#110239"/><path d="M68.82,189.48H88.7a81.2,81.2,0,0,0,58.42,24.46,82.06,82.06,0,0,0,82-82V92.83a3.67,3.67,0,0,0-3.67-3.67H68.82a3.67,3.67,0,0,0-3.67,3.67V104a42.82,42.82,0,0,0,3.67,85.49ZM43.73,121.57a35.25,35.25,0,0,1,25.09-10.39,3.67,3.67,0,0,0,3.67-3.67v-11H221.74V132a74.7,74.7,0,0,1-74.62,74.62,73.93,73.93,0,0,1-54.19-23.32,3.69,3.69,0,0,0-2.67-1.14H68.82a35.48,35.48,0,0,1-25.09-60.57Z" transform="translate(-26 -14.03)" style="fill:#110239"/><path d="M68.82,174.8H79.3a3.67,3.67,0,0,0,3.17-5.51,74.62,74.62,0,0,1-10-37.31v-9.79a3.67,3.67,0,0,0-3.67-3.67,28.14,28.14,0,0,0,0,56.28ZM54.11,132a20.67,20.67,0,0,1,11-5.77V132a82.07,82.07,0,0,0,8.06,35.48H68.82A20.8,20.8,0,0,1,54.11,132Z" transform="translate(-26 -14.03)" style="fill:#110239"/><path d="M147.12,199.26a66.54,66.54,0,0,0,41.75-14.55,3.67,3.67,0,0,0-4.56-5.75,59.29,59.29,0,0,1-37.19,13A60,60,0,0,1,87.17,132V111.32a30.84,30.84,0,0,1,10.78,3A38.38,38.38,0,0,0,115.31,118a38.33,38.33,0,0,0,17.35-3.73,31.1,31.1,0,0,1,14.45-3.12,31.12,31.12,0,0,1,14.46,3.12,42.29,42.29,0,0,0,34.71,0,30.62,30.62,0,0,1,10.78-3V132a59.22,59.22,0,0,1-13,37.19,3.67,3.67,0,0,0,5.75,4.56A66.49,66.49,0,0,0,214.4,132V107.51a3.65,3.65,0,0,0-3.67-3.67,38.49,38.49,0,0,0-17.35,3.72,34.94,34.94,0,0,1-28.91,0,38.54,38.54,0,0,0-17.36-3.72,38.53,38.53,0,0,0-17.35,3.72,31,31,0,0,1-14.45,3.13,30.9,30.9,0,0,1-14.45-3.13,38.58,38.58,0,0,0-17.36-3.72,3.67,3.67,0,0,0-3.67,3.67V132a67.36,67.36,0,0,0,67.29,67.28Z" transform="translate(-26 -14.03)" style="fill:#110239"/><path d="M252.33,219.5H41.9a3.67,3.67,0,1,0,0,7.34H44l2.12,7.41A14,14,0,0,0,59,244H235.2a14,14,0,0,0,12.89-9.72l2.11-7.41h2.13a3.67,3.67,0,0,0,0-7.34ZM241,232.23a6.72,6.72,0,0,1-5.83,4.4H59a6.72,6.72,0,0,1-5.83-4.4l-1.54-5.39H242.57Z" transform="translate(-26 -14.03)" style="fill:#110239"/><path d="M127.37,67.67c8.86,8.86,20.28,14.15,30.53,14.15,6.73,0,12.5-2.22,16.7-6.42,5.45-5.46,7.53-13.51,5.85-22.67-1.6-8.66-6.43-17.38-13.59-24.55C158,19.32,146.58,14,136.33,14c-6.73,0-12.5,2.22-16.69,6.42-5.46,5.46-7.54,13.51-5.85,22.67,1.59,8.66,6.42,17.38,13.58,24.55Zm34.3-34.3c6.12,6.13,10.23,13.48,11.56,20.69.94,5.12.37,9.68-1.6,13.19l-23.89-23.9a3.67,3.67,0,1,0-5.2,5.19l23.9,23.9a17.31,17.31,0,0,1-8.53,2c-8.36,0-17.83-4.49-25.34-12C126.44,56.35,122.33,49,121,41.79c-1-5.12-.38-9.67,1.59-13.19l9.56,9.56a3.67,3.67,0,0,0,5.2-5.19l-9.57-9.56a17.37,17.37,0,0,1,8.54-2C144.68,21.37,154.15,25.86,161.67,33.37Z" transform="translate(-26 -14.03)" style="fill:#110239"/></svg>