<svg id="Capa_1" data-name="Capa 1" xmlns="http://www.w3.org/2000/svg" viewBox="0 0 214 214"><title>ic_food_flat</title><circle cx="107" cy="107" r="107" style="fill:#007161"/><path d="M89.14,92.92l-1.21,6.83,1.21,14.88s4.64,12.2,10.74,15.12c0,0,21.22,13.66,39.27,1.22,0,0,10.24-11.7,11.7-18.78l1.22-19.27s-8.29,2-11,3.66c0,0-8.54,1-13.66-2,0,0-5.36-5.36-14.39-1C113.05,93.64,99.15,99.24,89.14,92.92Z" transform="translate(-10 -10)" style="fill:#fff"/><path d="M81,133.54h9.9a40.87,40.87,0,0,0,70-28.68V85.36A1.83,1.83,0,0,0,159,83.53H81a1.83,1.83,0,0,0-1.83,1.83v5.57A21.34,21.34,0,0,0,81,133.54ZM68.47,99.69A17.57,17.57,0,0,1,81,94.51a1.82,1.82,0,0,0,1.82-1.83V87.2h74.39v17.69A37.19,37.19,0,0,1,93,130.46a1.81,1.81,0,0,0-1.33-.57H81A17.68,17.68,0,0,1,68.47,99.7Z" transform="translate(-10 -10)" style="fill:#fff"/><path d="M81,126.22H86.2A1.83,1.83,0,0,0,88,124.39a1.87,1.87,0,0,0-.25-.92,37.21,37.21,0,0,1-5-18.59V100A1.82,1.82,0,0,0,81,98.17a14,14,0,1,0,0,28.05Zm-7.34-21.33A10.29,10.29,0,0,1,79.13,102v2.88a41,41,0,0,0,4,17.68H81a10.37,10.37,0,0,1-7.34-17.68Z" transform="translate(-10 -10)" style="fill:#fff"/><path d="M120,138.41a33.13,33.13,0,0,0,20.81-7.25,1.83,1.83,0,0,0-2.27-2.87A29.53,29.53,0,0,1,120,134.77a29.9,29.9,0,0,1-29.88-29.88V94.58a15.42,15.42,0,0,1,5.37,1.49,21.15,21.15,0,0,0,17.3,0,17.42,17.42,0,0,1,14.41,0,21,21,0,0,0,17.3,0,15.54,15.54,0,0,1,5.38-1.5v10.34a29.52,29.52,0,0,1-6.48,18.53,1.83,1.83,0,0,0,2.86,2.28,33.16,33.16,0,0,0,7.28-20.81V92.68a1.83,1.83,0,0,0-1.81-1.83h0a19.16,19.16,0,0,0-8.65,1.86,17.42,17.42,0,0,1-14.41,0,21,21,0,0,0-17.3,0,17.4,17.4,0,0,1-14.4,0,19.23,19.23,0,0,0-8.66-1.86,1.83,1.83,0,0,0-1.83,1.83v12.21A33.58,33.58,0,0,0,120,138.42Z" transform="translate(-10 -10)" style="fill:#fff"/><path d="M172.44,148.5H67.56a1.83,1.83,0,0,0,0,3.66h1.06l1,3.69a7,7,0,0,0,6.42,4.86H163.9a7,7,0,0,0,6.43-4.85l1-3.69h1.06a1.83,1.83,0,1,0,0-3.66Zm-5.65,6.34a3.36,3.36,0,0,1-2.9,2.2H76.08a3.36,3.36,0,0,1-2.9-2.2l-.77-2.68h95.17Z" transform="translate(-10 -10)" style="fill:#fff"/><path d="M110.16,72.82c4.41,4.42,10.11,7.06,15.21,7.06a11.48,11.48,0,0,0,8.33-3.2c2.71-2.73,3.75-6.74,2.91-11.3a23.82,23.82,0,0,0-6.77-12.24c-4.42-4.41-10.11-7.07-15.22-7.07a11.42,11.42,0,0,0-8.31,3.2c-2.73,2.72-3.76,6.74-2.92,11.3a23.86,23.86,0,0,0,6.77,12.24Zm17.09-17.09A20.28,20.28,0,0,1,133,66a9.81,9.81,0,0,1-.8,6.57L120.31,60.7a1.83,1.83,0,0,0-2.59,2.59L129.63,75.2a8.62,8.62,0,0,1-4.25,1c-4.17,0-8.89-2.24-12.63-6A20.1,20.1,0,0,1,107,59.92a9.52,9.52,0,0,1,.8-6.57l4.76,4.77a1.83,1.83,0,1,0,2.59-2.59l-4.77-4.77a8.65,8.65,0,0,1,4.26-1C118.79,49.75,123.51,52,127.25,55.73Z" transform="translate(-10 -10)" style="fill:#fff"/></svg>