<svg id="Capa_1" data-name="Capa 1" xmlns="http://www.w3.org/2000/svg" viewBox="0 0 424.67 567.54"><title>ic_timer</title><path d="M90.43,192.7c-5.21-5.21-12.94-5.61-18.15-.4L49.65,214.93c-5.2,5.21-4.81,12.94.4,18.15,4.56,4.55,11.48,4.93,17.18,1l13.08,13.07L104.47,223,91.41,209.88C95.36,204.17,95,197.26,90.43,192.7Z" transform="translate(-24.32 -25.46)" style="fill:#333"/><path d="M238,188c-48.05,0-87.14-36.46-87.14-81.27S190,25.46,238,25.46s87.13,36.47,87.13,81.28S286.06,188,238,188ZM238,41.8c-39,0-70.8,29.13-70.8,64.94S199,171.67,238,171.67s70.79-29.13,70.79-64.93S277.05,41.8,238,41.8Z" transform="translate(-24.32 -25.46)" style="fill:#007161"/><path d="M236.65,593C119.57,593,24.32,497.74,24.32,380.66s95.25-212.34,212.33-212.34S449,263.58,449,380.66,353.74,593,236.65,593Zm0-400.17c-103.57,0-187.83,84.26-187.83,187.83S133.08,568.5,236.65,568.5s187.84-84.27,187.84-187.84S340.22,192.83,236.65,192.83Z" transform="translate(-24.32 -25.46)" style="fill:#007161"/><rect x="204.81" y="183.79" width="17.03" height="28.38" style="fill:#333"/><rect x="117.57" y="254.77" width="16.34" height="28.59" transform="translate(-177.74 142.23) rotate(-44.99)" style="fill:#333"/><rect x="40.22" y="348.38" width="31.21" height="17.03" style="fill:#333"/><polygon points="105.75 450.11 117.31 461.66 97.09 481.88 85.54 470.32 105.75 450.11" style="fill:#333"/><rect x="204.81" y="498.78" width="17.03" height="28.38" style="fill:#333"/><rect x="339.96" y="477.16" width="16.34" height="28.59" transform="translate(-269.86 364.64) rotate(-45)" style="fill:#333"/><rect x="355.2" y="348.38" width="28.38" height="17.03" style="fill:#333"/><rect x="333.83" y="260.9" width="28.59" height="16.34" transform="translate(-112.62 299.46) rotate(-44.99)" style="fill:#333"/><rect x="187.78" y="95.83" width="53.92" height="68.1" style="fill:#007161"/><rect x="167.91" y="53.26" width="93.64" height="53.92" rx="4.08" style="fill:#007161"/><polyline points="213.32 490.27 213.32 482.1 213.32 356.89" style="fill:none"/><line x1="213.32" y1="229.2" x2="213.32" y2="220.69" style="fill:none"/><polyline points="213.32 490.27 213.32 482.1 213.32 356.89" style="fill:none"/><line x1="213.32" y1="229.2" x2="213.32" y2="220.69" style="fill:none"/><polyline points="307.63 450.49 302.15 445.02 212.34 355.2" style="fill:none"/><line x1="122.03" y1="264.9" x2="117.05" y2="259.91" style="fill:none"/><polyline points="346.69 356.89 338.95 356.89 213.32 356.89" style="fill:none"/><line x1="85.62" y1="356.89" x2="77.11" y2="356.89" style="fill:none"/><polyline points="307.63 259.91 302.44 265.1 212.34 355.2" style="fill:none"/><line x1="122.68" y1="444.86" x2="117.05" y2="450.49" style="fill:none"/><path d="M237.64,252.78V380.66l-90.59-90.1,0-.2A129.79,129.79,0,0,1,237.64,252.78Z" transform="translate(-24.32 -25.46)" style="fill:none"/><path d="M236.65,382.36,147,471.13l0,.46c-23.08-23-37-58-37-89.23Z" transform="translate(-24.32 -25.46)" style="fill:none"/><path d="M236.65,382.36H109.94v-2.19a124.61,124.61,0,0,1,36.56-88.76Z" transform="translate(-24.32 -25.46)" style="fill:none"/><path d="M365.33,380.17v.49c0,35-15,66.7-38,89.62,0,.08-.6-.06-.68,0a127.43,127.43,0,0,1-90,36.91h-.2a125.59,125.59,0,0,1-89.32-36.91s.36,0,.36-.07l90.15-89.57V252.78c36.89,0,66.37,14.38,89.41,37.58.07.08.9.11,1,.2A127.25,127.25,0,0,1,365.33,380.17Z" transform="translate(-24.32 -25.46)" style="fill:#f0cc01"/><path d="M219.85,365.22c9.51-11.33,24.58-13.16,35-2.71l.92.92c10.46,10.46,8.62,25.52-2.7,35C227.84,419.67,174.18,457,150.76,474c-4.89,3.55-9.45-2.45-6.49-6.45C164.47,440.34,198.64,390.48,219.85,365.22Z" transform="translate(-24.32 -25.46)" style="fill:#333"/></svg>