<?xml version="1.0" encoding="utf-8"?>
<!-- Generator: Adobe Illustrator 23.0.2, SVG Export Plug-In . SVG Version: 6.00 Build 0)  -->
<svg version="1.1" id="Capa_1" xmlns="http://www.w3.org/2000/svg" xmlns:xlink="http://www.w3.org/1999/xlink" x="0px" y="0px"
	 viewBox="0 0 222 222" style="enable-background:new 0 0 222 222;" xml:space="preserve">
<style type="text/css">
	.st0{fill:#007161;}
	.st1{fill:#FFFFFF;stroke:#FFFFFF;stroke-width:2;stroke-miterlimit:10;}
</style>
<circle class="st0" cx="110" cy="110" r="110"/>
<title>icon_home</title>
<path class="st1" d="M176.3,84.7l-22.6-16.6V38.8c0-1.2-1-2.2-2.2-2.2h-17.6c-1.2,0-2.2,1-2.2,2.2v6.6c0.1,1.2,1.1,2.2,2.3,2.1
	c1.1-0.1,2-1,2.1-2.1V41h13.2v23.9l-38-27.9c-0.8-0.6-1.8-0.6-2.6,0l-65,47.7c-2.9,2.2-3.6,6.3-1.4,9.2c1.2,1.7,3.2,2.7,5.3,2.7
	c1.4,0,2.8-0.4,3.9-1.3L110,52.5l54.3,39.9v77.8h-58v-58c0-1.2-1-2.2-2.2-2.2c0,0,0,0,0,0H67.5c-1.2,0-2.2,1-2.2,2.2c0,0,0,0,0,0v58
	h-9.6v-68.3c-0.1-1.2-1.1-2.2-2.3-2.1c-1.1,0.1-2,1-2.1,2.1v70.5c0,1.2,1,2.2,2.2,2.2h113c1.2,0,2.2-1,2.2-2.2V95.5
	c1.1,0.7,2.4,1.1,3.7,1.1c3.6,0,6.6-2.9,6.6-6.6C179,88,178,86,176.3,84.7L176.3,84.7z M69.6,114.4H102v55.8H69.6V114.4z
	 M172.4,92.3c-0.5,0-0.9-0.2-1.3-0.4L111.3,48c-0.8-0.6-1.8-0.6-2.6,0L48.9,91.8c-0.4,0.3-0.8,0.4-1.3,0.4c-1.2,0-2.2-1-2.2-2.2
	c0,0,0,0,0,0c0-0.7,0.3-1.4,0.9-1.8L110,41.5l63.7,46.8c0.6,0.4,0.9,1.1,0.9,1.8C174.6,91.3,173.6,92.3,172.4,92.3L172.4,92.3z"/>
</svg>
