<?xml version="1.0" encoding="utf-8"?>
<!-- Generator: Adobe Illustrator 23.0.2, SVG Export Plug-In . SVG Version: 6.00 Build 0)  -->
<svg version="1.1" id="Capa_1" xmlns="http://www.w3.org/2000/svg" xmlns:xlink="http://www.w3.org/1999/xlink" x="0px" y="0px"
	 viewBox="0 0 250.3 215" style="enable-background:new 0 0 250.3 215;" xml:space="preserve">
<style type="text/css">
	.st0{fill:#007161;}
	.st1{fill:#FFFFFF;stroke:#FFFFFF;stroke-width:2;stroke-miterlimit:10;}
</style>
<circle class="st0" cx="124" cy="107" r="110"/>
<title>icon_firs_aid</title>
<path class="st1" d="M189.1,53.6h-30.9v-5.3c0-9.8-8-17.7-17.8-17.8h-30.7c-9.8,0-17.7,8-17.8,17.8v5.3H61.2
	c-9.8,0-17.7,8-17.8,17.8v81.9c0,9.8,8,17.7,17.8,17.8h128c9.8,0,17.7-8,17.8-17.8V71.4C206.8,61.6,198.9,53.6,189.1,53.6z
	 M96.8,48.3c0-7.2,5.8-12.9,13-13h30.7c7.2,0,12.9,5.8,13,13v5.3H96.8V48.3z M189.1,166.2h-128c-7.2,0-12.9-5.8-13-13V81.4h18.2v13
	c0.2,4.1,3.7,7.4,7.8,7.2c3.9-0.2,7-3.3,7.2-7.2v-13h59c1.3-0.1,2.3-1.2,2.3-2.5c-0.1-1.2-1-2.2-2.3-2.3h-59v-2.7
	c-0.2-4.1-3.7-7.4-7.8-7.2c-3.9,0.2-7,3.3-7.2,7.2v2.7H48.2v-5.3c0-7.2,5.8-12.9,13-13h128c7.2,0,12.9,5.8,13,13v5.3h-18.2v-2.7
	c0.2-4.1-3-7.7-7.2-7.8s-7.7,3-7.8,7.2c0,0.2,0,0.4,0,0.6v2.7h-2.7c-1.3-0.1-2.5,0.9-2.5,2.3s0.9,2.5,2.3,2.5c0.1,0,0.2,0,0.3,0h2.7
	v13c0.2,4.1,3.7,7.4,7.8,7.2c3.9-0.2,7-3.3,7.2-7.2v-13h18.2v71.8C202,160.4,196.2,166.2,189.1,166.2z M76.7,76.6h-5.4v-2.7
	c0-1.5,1.2-2.7,2.7-2.7c1.5,0,2.7,1.2,2.7,2.7c0,0,0,0,0,0L76.7,76.6z M76.7,81.4v13c0,1.5-1.2,2.7-2.7,2.7c-1.5,0-2.7-1.2-2.7-2.7
	c0,0,0,0,0,0v-13L76.7,81.4z M173.6,81.4h5.4v13c0,1.5-1.2,2.7-2.7,2.7c-1.5,0-2.7-1.2-2.7-2.7L173.6,81.4z M173.6,76.6v-2.7
	c0-1.5,1.2-2.7,2.7-2.7c1.5,0,2.7,1.2,2.7,2.7c0,0,0,0,0,0v2.7L173.6,76.6z"/>
<path class="st1" d="M150.7,109.9h-13v-13c0-4.1-3.4-7.5-7.5-7.5H120c-4.1,0-7.5,3.4-7.5,7.5v13h-13c-4.2,0-7.5,3.4-7.5,7.5
	c0,0,0,0,0,0v10.2c0,4.2,3.4,7.5,7.5,7.5h13v12.9c0,4.1,3.4,7.5,7.5,7.5h10.2c4.1,0,7.5-3.4,7.5-7.5v-13h13c4.2,0,7.5-3.4,7.5-7.5
	v-10.2C158.2,113.3,154.9,109.9,150.7,109.9C150.7,109.9,150.7,109.9,150.7,109.9z M153.4,127.7c0,1.5-1.2,2.7-2.7,2.7l0,0h-15.4
	c-1.3,0-2.4,1.1-2.4,2.4v15.4c0,1.5-1.2,2.7-2.7,2.7H120c-1.5,0-2.7-1.2-2.7-2.7v-15.4c0-1.3-1.1-2.4-2.4-2.4H99.5
	c-1.5,0-2.7-1.2-2.7-2.7v-10.2c0-1.5,1.2-2.7,2.7-2.7h15.4c1.3,0,2.4-1.1,2.4-2.4l0,0V96.9c0-1.5,1.2-2.7,2.7-2.7h10.2
	c1.5,0,2.7,1.2,2.7,2.7v15.4c0,1.3,1.1,2.4,2.4,2.4h15.4c1.5,0,2.7,1.2,2.7,2.7L153.4,127.7z"/>
<path class="st1" d="M150.7,81.4h5.1c1.3,0.1,2.5-0.9,2.5-2.3c0.1-1.3-0.9-2.5-2.3-2.5c-0.1,0-0.2,0-0.3,0h-5.1
	c-1.3,0.1-2.3,1.2-2.3,2.5C148.5,80.4,149.5,81.4,150.7,81.4z"/>
</svg>
