<?xml version="1.0" encoding="utf-8"?>
<!-- Generator: Adobe Illustrator 23.0.2, SVG Export Plug-In . SVG Version: 6.00 Build 0)  -->
<svg version="1.1" id="Capa_1" xmlns="http://www.w3.org/2000/svg" xmlns:xlink="http://www.w3.org/1999/xlink" x="0px" y="0px"
	 viewBox="0 0 221.4 227.4" style="enable-background:new 0 0 221.4 227.4;" xml:space="preserve">
<style type="text/css">
	.st0{fill:#007161;}
	.st1{fill:#FFFFFF;}
</style>
<circle class="st0" cx="110" cy="110" r="110"/>
<title>icon_beauty</title>
<rect x="128.9" y="127.5" class="st1" width="39.1" height="48.2"/>
<rect x="62.9" y="140.2" class="st1" width="39.1" height="35.5"/>
<path class="st1" d="M176.8,105.1v75c0,2.4-2,4.3-4.3,4.3h-47.8c-2.4,0-4.4-1.9-4.4-4.3v-75c0-2.4,2-4.3,4.4-4.3c0,0,0,0,0,0h47.8
	C174.8,100.7,176.8,102.6,176.8,105.1C176.8,105,176.8,105,176.8,105.1z M168.1,175.7v-48.2h-39.1v48.2L168.1,175.7z M168.1,118.8
	v-9.5h-39.1v9.5L168.1,118.8z"/>
<path class="st1" d="M110.7,119.1v60.9c0,2.4-2,4.3-4.3,4.3H58.5c-2.4,0-4.3-1.9-4.3-4.3v-60.9c0-2.3,1.7-4.1,4-4.3V78.5
	c0-2.4,2-4.3,4.3-4.3c0,0,0,0,0,0h0.6V39.9c0-1.6,0.8-3,2.2-3.8c1.4-0.8,3-0.8,4.4,0l29.9,17.3c1.3,0.8,2.1,2.2,2.1,3.7v17.1h0.6
	c2.4,0,4.3,1.9,4.4,4.3v36.3C108.9,114.9,110.7,116.8,110.7,119.1z M102,175.8v-35.5H62.9v35.5L102,175.8z M102,131.6v-8.1H62.9v8.1
	L102,131.6z M97.9,114.8V82.9h-31v31.9L97.9,114.8z M93,74.2V59.7L71.8,47.4v26.8L93,74.2z"/>
<path class="st1" d="M62.9,140.2v27.6c1,1.7,2.9,2.7,4.8,2.7h19.1c2.5,0,4.5-2,4.5-4.5v-25.8H62.9z"/>
<path class="st1" d="M132,127.5v32.7c0,5.9,4.8,10.7,10.7,10.7h4.5c6.6,0,11.9-5.3,11.9-11.9v-31.5H132z"/>
</svg>
