<?xml version="1.0" encoding="utf-8"?>
<!-- Generator: Adobe Illustrator 23.0.2, SVG Export Plug-In . SVG Version: 6.00 Build 0)  -->
<svg version="1.1" id="Capa_1" xmlns="http://www.w3.org/2000/svg" xmlns:xlink="http://www.w3.org/1999/xlink" x="0px" y="0px"
	 viewBox="0 0 236 232.6" style="enable-background:new 0 0 236 232.6;" xml:space="preserve">
<style type="text/css">
	.st0{fill:#007161;}
	.st1{fill:#FFFFFF;}
</style>
<circle class="st0" cx="117" cy="115" r="110"/>
<title>icon_fun</title>
<path class="st1" d="M122.9,152.9c-2.6-1-5.5,0.3-6.5,2.9c-1,2.6,0.3,5.5,2.9,6.5c2.6,1,5.5-0.3,6.5-2.9c0,0,0,0,0,0
	C126.8,156.8,125.5,153.9,122.9,152.9C122.9,152.9,122.9,152.9,122.9,152.9z"/>
<path class="st1" d="M127.8,140.1c-2.6-1-5.5,0.3-6.5,2.9c-1,2.6,0.3,5.5,2.9,6.5c2.6,1,5.5-0.3,6.5-2.9c0,0,0,0,0,0
	C131.7,144.1,130.4,141.2,127.8,140.1C127.8,140.1,127.8,140.1,127.8,140.1z"/>
<path class="st1" d="M153.9,142.1l-7.8-3c-2.6-0.9-5.5,0.4-6.5,3.1c-0.9,2.5,0.3,5.3,2.8,6.4l7.8,3c2.6,0.9,5.5-0.4,6.5-3.1
	C157.6,145.9,156.3,143.1,153.9,142.1L153.9,142.1z"/>
<path class="st1" d="M90.9,153.6l-30.4-11.7c1.1-8.1-2.5-16.1-9.2-20.8l2.3-5.9c2.9,2.2,4.6,5.6,4.6,9.2c0,2.8,2.2,5,5,5.1h35.1
	c-0.2-3.4-0.2-6.7-0.2-10.1H67.5c-1.9-8-8.1-14.2-16.1-16.1V78.8c8-1.9,14.2-8.1,16.1-16.1h28.8c0-3.4-0.1-6.7-0.3-10.1h-33
	c-2.8,0-5.1,2.3-5.1,5.1l0,0c0,6.4-5.2,11.6-11.6,11.6c-2.8,0-5.1,2.3-5.1,5c0,0,0,0,0,0v33.4c0,1.8,0.9,3.4,2.5,4.3l-3.7,9.5
	c-1,2.6,0.3,5.5,2.9,6.5c0,0,0,0,0,0c6,2.3,9,9,6.7,15c-1,2.6,0.3,5.5,2.9,6.5c0,0,0,0,0,0l31.1,12
	C86.1,158.9,88.4,156.2,90.9,153.6z"/>
<path class="st1" d="M183.2,135.5c-6-2.3-9-9-6.7-15c0,0,0,0,0,0c0.9-2.3-0.1-5-2.3-6.2c1.7-0.9,3.6-1.4,5.6-1.4
	c2.8,0,5.1-2.3,5.1-5c0,0,0,0,0,0V74.4c0-2.8-2.3-5.1-5-5.1c0,0,0,0,0,0c-6.4,0-11.6-5.2-11.6-11.6c0-2.8-2.3-5.1-5.1-5.1l0,0H101
	c0.1,3.4,0.2,6.7,0.3,10.1h57.4c1.9,8,8.1,14.2,16.1,16.1v24.4c-8,1.9-14.2,8.1-16.1,16.1h-55.8c0.1,3.4,0,6.7,0.2,10.1h23.5
	c-1.5,2.4-0.8,5.5,1.6,7c2.4,1.5,5.5,0.8,7-1.6c1-1.6,1-3.7,0-5.3h28c1,0,2-0.3,2.8-0.9c0.3,1.7,0.8,3.3,1.5,4.9
	c1.6,3.7,4.2,6.8,7.6,9.1l-8.8,22.8c-8.1-1.1-16.1,2.5-20.8,9.2l-49.7-19.1c-2.4,2.6-4.8,5.3-7.2,8.1l57.4,22.1
	c2.6,1,5.5-0.3,6.5-2.9c2.3-6,9-9,15-6.7c0,0,0,0,0,0c2.6,1,5.5-0.3,6.5-2.9l12-31.1C187.1,139.4,185.8,136.5,183.2,135.5
	C183.2,135.5,183.2,135.5,183.2,135.5z"/>
<path class="st1" d="M129.8,76c2.8,0,5.1-2.3,5.1-5.1c0-2.8-2.3-5.1-5.1-5.1s-5.1,2.3-5.1,5.1c0,0,0,0,0,0
	C124.8,73.8,127,76,129.8,76L129.8,76z"/>
<path class="st1" d="M129.8,89.7c2.8,0,5.1-2.3,5.1-5.1c0-2.8-2.3-5.1-5.1-5.1c-2.8,0-5.1,2.3-5.1,5.1c0,0,0,0,0,0
	C124.8,87.4,127,89.7,129.8,89.7z"/>
<path class="st1" d="M129.8,117c2.8,0,5.1-2.3,5.1-5.1c0-2.8-2.3-5.1-5.1-5.1c-2.8,0-5.1,2.3-5.1,5.1c0,0,0,0,0,0
	C124.8,114.7,127,117,129.8,117z"/>
<path class="st1" d="M129.8,103.3c2.8,0,5.1-2.3,5.1-5.1c0-2.8-2.3-5.1-5.1-5.1c-2.8,0-5.1,2.3-5.1,5.1c0,0,0,0,0,0
	C124.8,101.1,127,103.3,129.8,103.3L129.8,103.3z"/>
<path class="st1" d="M146.5,96.1h8.3c2.8,0.1,5.1-2.1,5.2-4.9s-2.1-5.1-4.9-5.2c-0.1,0-0.2,0-0.4,0h-8.3c-2.8,0.1-5,2.4-4.9,5.2
	C141.7,93.9,143.8,96,146.5,96.1z"/>
</svg>
