<svg id="Capa_1" data-name="Capa 1" xmlns="http://www.w3.org/2000/svg" viewBox="0 0 201 201"><title>icon_education_flat</title><circle cx="100.5" cy="100.5" r="100.5" style="fill:#007161"/><ellipse cx="101.16" cy="69.77" rx="5.61" ry="4.78" style="fill:#fff;stroke:#fff;stroke-miterlimit:10;stroke-width:2px"/><path d="M75,89l10.88,6.45v11.27a6,6,0,0,0,2.93,5.14l24.73,14.69a6,6,0,0,0,6.14,0l24.76-14.69a6,6,0,0,0,2.93-5.14V95.41l8.82-5.23V98a5.83,5.83,0,0,0-3.89,5.48v14.26a1.94,1.94,0,0,0,1.94,1.94H162a1.94,1.94,0,0,0,1.94-1.94V103.5A5.84,5.84,0,0,0,160.09,98V85.76h0a3.67,3.67,0,0,0-1.82-3.2l-38.79-23a5.52,5.52,0,0,0-5.63,0L75,82.56a3.73,3.73,0,0,0-1.32,5.1A3.79,3.79,0,0,0,75,89Zm15.8,19.53a2.13,2.13,0,0,1-1-1.81V97.74l24,14.28a5.52,5.52,0,0,0,.88.43v10.27Zm52.69-1.81a2.14,2.14,0,0,1-1,1.83L118.6,122.69V112.42a5.52,5.52,0,0,0,.88-.43l24-14.28v9Zm16.57,9.16h-3.87V103.5a1.94,1.94,0,1,1,3.87,0Zm-44.29-53a1.63,1.63,0,0,1,1.68,0l38.57,22.9-38.54,22.9a1.63,1.63,0,0,1-1.68,0L77.26,85.76Z" transform="translate(-15.5 -16.5)" style="fill:#fff;stroke:#fff;stroke-miterlimit:10;stroke-width:2px"/><path d="M124.21,86.27c0-3.71-3.39-6.73-7.55-6.73s-7.54,3-7.54,6.73S112.5,93,116.66,93,124.21,90,124.21,86.27Z" transform="translate(-15.5 -16.5)" style="fill:#fff;stroke:#fff;stroke-miterlimit:10;stroke-width:2px"/><path d="M151.39,130.79H110.27a1.94,1.94,0,0,0,0,3.88h6.43a11.06,11.06,0,0,1,11,11,8.45,8.45,0,0,1-8.45,8.45h-33a12.27,12.27,0,0,0,3.36-8.45,14.89,14.89,0,0,0-4.9-11h8.38a1.94,1.94,0,1,0,0-3.88H74.57a1.94,1.94,0,0,0-.13,3.86h.23a11,11,0,0,1,11,11,8.46,8.46,0,0,1-8.42,8.47,6.37,6.37,0,0,1-6.37-6.37,4.69,4.69,0,0,1,4.7-4.7A3.38,3.38,0,0,1,79,146.48h0a1.94,1.94,0,0,0,3.85,0,7.27,7.27,0,0,0-7.27-7.27h0A8.6,8.6,0,0,0,67,147.79,10.27,10.27,0,0,0,77.29,158H154a12.34,12.34,0,0,0,12.33-12.33A15,15,0,0,0,151.39,130.79ZM154,154.16H128.22a12.27,12.27,0,0,0,3.36-8.45,14.89,14.89,0,0,0-4.9-11h24.7a11.06,11.06,0,0,1,11.05,11,8.46,8.46,0,0,1-8.45,8.45Z" transform="translate(-15.5 -16.5)" style="fill:#fff;stroke:#fff;stroke-miterlimit:10;stroke-width:2px"/><path d="M100.36,131.36a1.94,1.94,0,1,0,2.75,0,1.93,1.93,0,0,0-1.38-.58A2,2,0,0,0,100.36,131.36Z" transform="translate(-15.5 -16.5)" style="fill:#fff;stroke:#fff;stroke-miterlimit:10;stroke-width:2px"/></svg>