<svg id="Capa_1" data-name="Capa 1" xmlns="http://www.w3.org/2000/svg" viewBox="0 0 232 232"><title>icon_education</title><path d="M39.88,186.87H219.13a30.34,30.34,0,0,1,30.34,30.83,24.29,24.29,0,0,1-24.35,23.77H46A18.49,18.49,0,0,0,64.44,223v-17.6A18.49,18.49,0,0,0,46,186.87Z" transform="translate(-22 -14)" style="fill:#329d8e"/><path d="M225.91,151.88H244V118.57a9.06,9.06,0,0,0-9.06-9.06h0a9.06,9.06,0,0,0-9.06,9.06Z" transform="translate(-22 -14)" style="fill:#329d8e"/><path d="M70.7,97.09V126a9.49,9.49,0,0,0,4.65,8.17l57.8,34.32a9.48,9.48,0,0,0,9.7,0l57.8-34.32a9.5,9.5,0,0,0,4.66-8.17V98.32" transform="translate(-22 -14)" style="fill:none"/><path d="M232.93,80.69l-90.66,53.83a8.38,8.38,0,0,1-8.54,0L43.07,80.69a4.16,4.16,0,0,1,0-7.16L133.73,19.7a8.38,8.38,0,0,1,8.54,0l90.66,53.83A4.16,4.16,0,0,1,232.93,80.69Z" transform="translate(-22 -14)" style="fill:none"/><ellipse cx="116" cy="64.3" rx="13.1" ry="11.18" style="fill:#329d8e"/><path d="M39.88,206.68V186.87A30.33,30.33,0,0,1,70.21,217.2,24.27,24.27,0,0,1,46,241.47a19.41,19.41,0,0,1-19.42-19.41,15.53,15.53,0,0,1,15.53-15.54A12.44,12.44,0,0,1,54.49,219" transform="translate(-22 -14)" style="fill:#329d8e"/><path d="M40.75,84.59,66.16,99.67V126A14.11,14.11,0,0,0,73,138l57.79,34.32a14,14,0,0,0,14.34,0L203,138A14.12,14.12,0,0,0,209.84,126V99.67l20.6-12.23v18.32a13.61,13.61,0,0,0-9.07,12.81v33.31a4.53,4.53,0,0,0,4.54,4.53H244a4.53,4.53,0,0,0,4.53-4.53V118.57a13.62,13.62,0,0,0-9.06-12.81V77.11h0a8.61,8.61,0,0,0-4.25-7.47L144.58,15.81a12.88,12.88,0,0,0-13.16,0L40.75,69.64a8.7,8.7,0,0,0,0,15Zm36.91,45.64A5,5,0,0,1,75.23,126v-20.9l56.19,33.37a13.73,13.73,0,0,0,2.05,1v24ZM200.77,126a5,5,0,0,1-2.43,4.28l-55.81,33.13v-24a13.28,13.28,0,0,0,2.05-1l56.19-33.37V126Zm38.73,21.4h-9.06V118.57a4.53,4.53,0,0,1,9.06,0ZM136,23.6a3.83,3.83,0,0,1,3.92,0l90.12,53.51L140,130.62a3.83,3.83,0,0,1-3.92,0L45.92,77.11Z" transform="translate(-22 -14)" style="fill:#110239"/><path d="M155.63,78.3c0-8.66-7.91-15.71-17.63-15.71s-17.63,7-17.63,15.71S128.28,94,138,94,155.63,87,155.63,78.3Zm-26.19,0c0-3.6,3.92-6.65,8.56-6.65s8.56,3,8.56,6.65-3.92,6.64-8.56,6.64S129.44,81.9,129.44,78.3Z" transform="translate(-22 -14)" style="fill:#110239"/><path d="M219.13,182.34H123.05a4.53,4.53,0,1,0,0,9.06h15a25.82,25.82,0,0,1,25.8,25.8,19.76,19.76,0,0,1-19.73,19.74H66.89a28.7,28.7,0,0,0,7.85-19.74A34.76,34.76,0,0,0,63.3,191.4H82.87a4.53,4.53,0,0,0,0-9.06H39.64a4.53,4.53,0,0,0-.29,9,3.25,3.25,0,0,0,.53,0,25.82,25.82,0,0,1,25.8,25.8A19.76,19.76,0,0,1,46,236.94a14.91,14.91,0,0,1-14.89-14.88,11,11,0,0,1,11-11A7.91,7.91,0,0,1,50,219,4.53,4.53,0,0,0,59,219a17,17,0,0,0-17-17A20.09,20.09,0,0,0,22,222.06,24,24,0,0,0,46,246H225.2A28.83,28.83,0,0,0,254,217.2,34.9,34.9,0,0,0,219.13,182.34Zm6.07,54.6H165a28.73,28.73,0,0,0,7.86-19.74,34.77,34.77,0,0,0-11.45-25.8h57.71a25.83,25.83,0,0,1,25.81,25.8A19.77,19.77,0,0,1,225.2,236.94Z" transform="translate(-22 -14)" style="fill:#110239"/><path d="M99.91,183.66a4.54,4.54,0,1,0,3.2-1.32A4.57,4.57,0,0,0,99.91,183.66Z" transform="translate(-22 -14)" style="fill:#110239"/></svg>