<svg id="Capa_1" data-name="Capa 1" xmlns="http://www.w3.org/2000/svg" viewBox="0 0 259.69 259.69"><title>icon_clinic</title><path d="M83,93.49l105,105s-70,112.1-142,41.59S83,93.49,83,93.49Z" transform="translate(-12 -10.31)" style="fill:#329d8e"/><path d="M95.35,269.53a82.88,82.88,0,0,1-58.6-141.47L79.08,85.73a8,8,0,0,1,11.29,0l105.91,105.9a8,8,0,0,1,0,11.29l-42.34,42.33A82.33,82.33,0,0,1,95.35,269.53ZM84.73,102.66,48,139.35A66.9,66.9,0,1,0,142.65,234l36.69-36.69Z" transform="translate(-12 -10.31)" style="fill:#007161"/><path d="M94.87,270h0a82.87,82.87,0,0,1-58.6-141.46l94-94A82.87,82.87,0,0,1,247.46,151.73l-23.85,23.85a8,8,0,0,1-11.29-11.29l23.85-23.85a66.9,66.9,0,1,0-94.61-94.61l-94,94a66.9,66.9,0,0,0,94.61,94.61,8,8,0,1,1,11.29,11.29A82.3,82.3,0,0,1,94.87,270Z" transform="translate(-12 -10.31)" style="fill:#007161"/><path d="M73.93,165.73a8,8,0,0,1-5.64-13.63l85.54-85.54a8,8,0,1,1,11.29,11.29L79.58,163.39A8,8,0,0,1,73.93,165.73Z" transform="translate(-12 -10.31)" style="fill:#007161"/></svg>