<svg xmlns="http://www.w3.org/2000/svg" width="35.68" height="60.364" viewBox="0 0 35.68 60.364">
  <g id="Grupo_2382" data-name="Grupo 2382" transform="translate(-141.476 -165)">
    <path id="Trazado_1910" data-name="Trazado 1910" d="M74.99,59.89l-.23.47-1.4-.59-5.9-33.02L78.81,16.44V14.93l1.74-.46,22.59,7.65-7.3,33.63-.99,1.04-1.09-.84,5.75-32.01-17.8-6.28.51,28.62-1.2,1.04Z" transform="translate(74.016 165.004)" fill="#f5f5f5"/>
    <path id="Trazado_1911" data-name="Trazado 1911" d="M92.84,45.29a7.31,7.31,0,0,1,7.37-8.86,10.87,10.87,0,0,1,10.3,8.86,7.32,7.32,0,0,1-7.38,8.85,10.85,10.85,0,0,1-10.29-8.85Z" transform="translate(63.465 128.573)" fill="#f5f5f5" fill-rule="evenodd"/>
    <path id="Trazado_1912" data-name="Trazado 1912" d="M84.3,22.18l12.33,4.45-4.37,28.1-8.42-6.82Z" transform="translate(74.016 165.004)" fill="#f5f5f5" fill-rule="evenodd"/>
  </g>
</svg>
