<svg id="Capa_1" data-name="Capa 1" xmlns="http://www.w3.org/2000/svg" viewBox="0 0 469.46 382.39"><title>homepage_logo_init</title><path d="M170.55,205.82,169,367c-.08,8.36-2.45,13.22-14.41,14.76-14.88,1.92-19.38-.7-21.59-4.79-4.14-7.69-44.74-161.72-51.45-172.2S170.55,205.82,170.55,205.82Z" transform="translate(-0.03 0.01)" style="fill:#607a97"/><path d="M170.21,240.52l.34-34.72s-95.71-11.52-89-1c1.58,2.47,7.83,22.34,12.51,37.7Z" transform="translate(-0.03 0.01)" style="fill:#606060"/><path d="M19.83,150.3A18.11,18.11,0,0,0,2,164.3a87.58,87.58,0,0,0-2,18.75c-.08,9.18.6,15.15,2.85,20.18A17.7,17.7,0,0,0,18.5,213.31c32.72,1.19,150.56,5.8,175.12,11.58C222.23,231.61,318,274.14,318,274.14L299.76,58.66s-88,71.33-143.87,82.42C112.43,149.71,46.82,150.41,19.83,150.3Z" transform="translate(-0.03 0.01)" style="fill:#d0d1de"/><path d="M79.77,215.88c12.18.58,24.87,1.23,37.33,2-7.82-25.24-4.73-54.1-.74-71.32-12.46,1.17-25.19,2-37.42,2.56C73.14,173.62,74.16,196.66,79.77,215.88Z" transform="translate(-0.03 0.01)" style="fill:#110239"/><path d="M411.51,159.21c.62,77.9-36.48,141.35-82.86,141.71s-84.47-62.49-85.08-140.39S280.05,19.18,326.43,18.82,410.9,81.31,411.51,159.21Z" transform="translate(-0.03 0.01)" style="fill:#e5e6ed"/><path d="M405.26,159.26c.52,66.27-31,120.24-70.49,120.55s-71.86-53.16-72.38-119.43,31-120.24,70.49-120.56S404.74,93,405.26,159.26Z" transform="translate(-0.03 0.01)" style="fill:#607a97"/><path d="M318.7,171.45c1.7-23.61-13.76-43.95-34.51-45.44a34.08,34.08,0,0,0-19.77,4.87,198.06,198.06,0,0,0-2,29.5,190,190,0,0,0,6.69,49.06,33.53,33.53,0,0,0,9,2.06C298.81,213,317,195.06,318.7,171.45Z" transform="translate(-0.03 0.01)" style="fill:#606060"/><path d="M194,85.25c-.27-2.49-.46-4.82.91-7.21-1.22.2-3,.39-2.92-.33.14-1,.35-2.34-.35-2.21a5.19,5.19,0,0,0-1.82.91,8.13,8.13,0,0,1-4.18,1c-.5,1.64-1.9,4.19-1,6,.47.92,2.92.49,4,.9A18.46,18.46,0,0,0,194,85.25Z" transform="translate(-0.03 0.01)" style="fill:#f88667"/><path d="M159.56,9.16s-10.38-.58-24.43,6.06l6.55,28.5a29.91,29.91,0,0,1,15.95-3.51Z" transform="translate(-0.03 0.01)" style="fill:#d0d1ff"/><path d="M152.7,24.14c.06-4.76.36-9.51.47-14.26a45.78,45.78,0,0,1,6.39-.72l-1.93,31.05c-2.67-4.07-3.94-3.17-4.47-3.66C153.18,32.44,152.65,28.21,152.7,24.14Z" transform="translate(-0.03 0.01)" style="fill:#005861"/><path d="M216.25,10.65S179.11-3.95,154.76,1l-1.6,35.52s21.59-4.73,51.48,8.27Z" transform="translate(-0.03 0.01)" style="fill:#d0d1ff"/><rect x="156.98" y="51.09" width="89.07" height="3.2" transform="translate(85.6 225.77) rotate(-70.85)" style="fill:#110239"/><path d="M187.56,85.45V75.39s-30,.24-42.59-3.37-29.44-18.41-36.15-16-11,9.23-2.66,15.77S134.28,84,142.85,85.3C148.8,86.2,182.83,85.44,187.56,85.45Z" transform="translate(-0.03 0.01)" style="fill:#d0d1ff"/><path d="M137.37,79.17c-10.6-4.4-20.6-14-29.14-22.92-6.36,2.57-10.15,9.19-2.07,15.57,8.34,6.55,28.11,12.2,36.69,13.51,2.92.45,12.64.49,22.32.42A97.13,97.13,0,0,1,137.37,79.17Z" transform="translate(-0.03 0.01)" style="fill:#606060"/><path d="M137.1,201.93s-5.86,9.47-5,11.72,21.24,14.08,24,13.13,3.27-4.18-.37-7.43c-3.28-2.93-6.49-3.76-8.68-6.62-1.93-2.5,0-8.89,0-8.89Z" transform="translate(-0.03 0.01)" style="fill:#110239"/><path d="M102.85,121.65s4.08,3.34,8.39,2.78,46.28,3.8,50.58,7.35-13.31,74.57-13.31,74.57l-14.59-2.43s5.23-51.92,4.35-52.29-22.91-.29-60.49-.29c-9.17,0-19.4-19.28-7.8-32.75Z" transform="translate(-0.03 0.01)" style="fill:#606060"/><path d="M109.39,42.55a16.61,16.61,0,0,1-3.93-2.48c-.57,4.32-2.2,12.28-6.6,16.44,0,0,9.11,3.76,16.58,2.1,0,0-.88-10.12.66-15.09A14.64,14.64,0,0,1,109.39,42.55Z" transform="translate(-0.03 0.01)" style="fill:#f88667"/><path d="M104.93,54.88c1.43-4.48,5.93-7.25,10.46-7.3a20.8,20.8,0,0,1,.71-4.06,14.66,14.66,0,0,1-6.71-1A16.61,16.61,0,0,1,105.46,40c-.57,4.32-2.2,12.28-6.6,16.44a39.12,39.12,0,0,0,5.4,1.65A13.32,13.32,0,0,1,104.93,54.88Z" transform="translate(-0.03 0.01)" style="fill:#e45940"/><path d="M106.79,18s10.76-3.38,14.16-1.26,6,8.8,5.46,12.71,3.9,8.44,4,9.85c.1,1.13-3.4,2-3.51,2.38s-.32,7.55-5,8.76c-6.63,1.69-15.5-3.65-18.55-7.66S96.67,20.36,106.79,18Z" transform="translate(-0.03 0.01)" style="fill:#f88667"/><path d="M126.83,18.4c-.57-.57-2-1.49-2.38-2.22a14,14,0,0,0-.82-1.86c-1.19-1.75-1.48-3-6.4-4.57-4.27-1.33-9.72.21-13.12,2.92A12.29,12.29,0,0,0,101,16.29c-.24.42-1,1.58-.8,2s1.82.94,2.31,1.22a19.33,19.33,0,0,1,2.42,2c4.91,4,12.59,8.26,18,2.73a23.39,23.39,0,0,0,2-2.33,14.45,14.45,0,0,1,1.49,7.14,6.36,6.36,0,0,0,2.19-3.45C129.36,22,128.19,19.76,126.83,18.4Z" transform="translate(-0.03 0.01)" style="fill:#110239"/><path d="M104.08,18.07c-1.31-.7-3.75-.47-5.1-.18-2.83.61-4.35,2.68-4.85,5.42a26.26,26.26,0,0,0-.51,5A19.39,19.39,0,0,0,94.88,36a18.12,18.12,0,0,0,4.5,7.13c1.9,1.73,5.64,3.72,7.51,3,.72-.29,1.76-5.48,1.57-6.84s-.83-1.31-1.85-1.89c-1.71-1-3.63-2.89-2.38-5,1.79-3,5.12-1.6,6.32,2.5,0,0,1.3,2.3,2,1.93S116.63,24.82,104.08,18.07Z" transform="translate(-0.03 0.01)" style="fill:#110239"/><path d="M105.44,32.82a2.86,2.86,0,0,1,3.19.84c1.28,1.5.68,3.91-.59,3s-.76-1.69-1-2.44A2.39,2.39,0,0,0,105.44,32.82Z" transform="translate(-0.03 0.01)" style="fill:#e45940"/><path d="M64.8,117.71s15.2,11.79,46.71,6.54a68.63,68.63,0,0,1,2.57-17.9c2.64-8.85,6.61-26.1,6.72-35.2.13-10.28-5.51-14.91-5.51-14.91s-5.92,5.54-14.74-1.69c0,0-16.71,4-24.54,23S64.8,117.71,64.8,117.71Z" transform="translate(-0.03 0.01)" style="fill:#d0d1ff"/><path d="M102.75,69.38c-8.13,8.79-.26,30.42,10,42.49a55.31,55.31,0,0,1,1.31-5.52c1.39-4.66,3.14-11.65,4.51-18.55A16.39,16.39,0,0,1,112,80C108.84,72.3,106.79,67.12,102.75,69.38Z" transform="translate(-0.03 0.01)" style="fill:#606060"/><path d="M168.68,129.82a8.37,8.37,0,0,0,3.83,2,5.13,5.13,0,0,1,2,.5,10.7,10.7,0,0,0,2.18.78,4.14,4.14,0,0,1,2.07,1c.62.73-.58,1-1.41,1s-3.24-1.49-3.94-.85,2.27,2.33,2.87,2.65c1.41.78,2.45.16,3.9.18.85,0,1.24.28.65,1.07-.43.58-1.29.61-2,.65a8.61,8.61,0,0,1-4.19-.68,10.26,10.26,0,0,0,3.84,1c.75.06,4-.26,4,.94,0,2.41-7.23.87-8.3,0a12,12,0,0,0,3.8,1.29c.77.18,2.62.52,1.61,1.52-1.5,1.47-5.07-1-6.86-1.77a13.86,13.86,0,0,0,3.27,2c1.5.79.39,1.62-1.28,1.07a20.18,20.18,0,0,1-2.31-1.08c-3-1.66-4.11-3.2-5.72-6.08-.58-1-2.72-2.32-2.5-3.32C164.63,131.82,167.28,130.82,168.68,129.82Z" transform="translate(-0.03 0.01)" style="fill:#f88667"/><path d="M170.91,128.37l-6.11,8.28s-39.06-16.92-42.57-21.39-15-20.83-16.79-25.19c-4.17-10.11-9.33-22.16,0-24.28,5.09-1.15,8.37.13,11.54,7.63,4.3,10.19,13.44,26.34,17.17,31.25C135.59,106.57,170.91,128.37,170.91,128.37Z" transform="translate(-0.03 0.01)" style="fill:#d0d1ff"/><path d="M198.4,78.2c.55.88-1,4.65-2.42,6.23-1.14,1.24-2.49.88-3.62.26s-2.67-1-2.86-1.72c-.25-2.8,2.35-.69,3.5-.28,0,0-3.14-1.56-3.1-2.91.12-2.53,4,.39,5.08.88a6.45,6.45,0,0,1-3-2,1,1,0,0,1-.19-1.4l.07-.08c.84-.78,4.13,1.58,4.13,1.58-.59-.42-3-1.29-2-2.4.64-.73,1.61-.12,2.19.06A3.45,3.45,0,0,1,198.4,78.2Z" transform="translate(-0.03 0.01)" style="fill:#f88667"/><path d="M191,78.09c.37-.15.72-.22,1.07-.33h0c.14-1,3.8-1.2,4.61-1.63,2.45-1.28,1.46-2.82.35-2.47-.76.24-2.48.75-3.14,1a12.06,12.06,0,0,1-2.54.29c-.68.13-2.56,1.8-3.15,2.19C186.9,78,189.66,78.63,191,78.09Z" transform="translate(-0.03 0.01)" style="fill:#f88667"/><path d="M464.07,106.82c.8,2.2-6.48,6.91-16.28,10.51s-18.4,4.73-19.21,2.53,6.48-6.9,16.28-10.5S463.26,104.66,464.07,106.82Z" transform="translate(-0.03 0.01)" style="fill:#d0d1de"/><path d="M446.24,62.75c.93,2.15-6.08,7.26-15.66,11.41s-18.1,5.77-19,3.62,6.08-7.26,15.66-11.41S445.31,60.6,446.24,62.75Z" transform="translate(-0.03 0.01)" style="fill:#d0d1de"/><path d="M459.43,224.63c-.69,2.24-9.34,1.55-19.31-1.54s-17.49-7.41-16.79-9.65,9.34-1.55,19.31,1.54S460.13,222.39,459.43,224.63Z" transform="translate(-0.03 0.01)" style="fill:#d0d1de"/><path d="M441.31,272.36c-.88,2.18-9.44.78-19.12-3.12s-16.83-8.82-15.95-11,9.43-.77,19.12,3.12S442.18,270.18,441.31,272.36Z" transform="translate(-0.03 0.01)" style="fill:#d0d1de"/><path d="M469.49,166.3c-.12,2.34-8.67,3.8-19.09,3.26s-18.78-2.88-18.66-5.22,8.67-3.8,19.1-3.26S469.61,164,469.49,166.3Z" transform="translate(-0.03 0.01)" style="fill:#d0d1de"/></svg>