<svg id="Capa_1" data-name="Capa 1" xmlns="http://www.w3.org/2000/svg" viewBox="0 0 469.49 382.39"><title>homepage_logo</title><path d="M185.55,230,184,391.16c-.08,8.36-2.45,13.22-14.41,14.76-14.88,1.92-19.38-.7-21.59-4.79-4.14-7.69-44.74-161.72-51.45-172.2S185.55,230,185.55,230Z" transform="translate(-15 -24.18)" style="fill:#f0cc01"/><path d="M185.21,264.7l.34-34.72s-95.71-11.52-89-1c1.58,2.47,7.83,22.34,12.51,37.7Z" transform="translate(-15 -24.18)" style="fill:#f09101"/><path d="M34.83,174.48a18.11,18.11,0,0,0-17.79,14,87.16,87.16,0,0,0-2,18.75c-.08,9.18.6,15.15,2.85,20.18A17.7,17.7,0,0,0,33.5,237.49c32.72,1.19,150.56,5.8,175.12,11.58C237.23,255.79,333,298.32,333,298.32L314.76,82.84s-88,71.33-143.87,82.42C127.43,173.89,61.82,174.59,34.83,174.48Z" transform="translate(-15 -24.18)" style="fill:#d0d1de"/><path d="M94.77,240.06c12.18.58,24.87,1.23,37.33,1.95-7.82-25.24-4.73-54.1-.74-71.32-12.46,1.17-25.19,2-37.42,2.56C88.14,197.8,89.16,220.84,94.77,240.06Z" transform="translate(-15 -24.18)" style="fill:#110239"/><path d="M426.51,183.39c.62,77.9-36.48,141.35-82.86,141.71s-84.47-62.49-85.08-140.39S295.05,43.36,341.43,43,425.9,105.49,426.51,183.39Z" transform="translate(-15 -24.18)" style="fill:#e5e6ed"/><path d="M420.26,183.44c.52,66.27-31,120.24-70.49,120.55s-71.86-53.16-72.38-119.43S308.42,64.32,347.88,64,419.74,117.17,420.26,183.44Z" transform="translate(-15 -24.18)" style="fill:#110239"/><path d="M333.7,195.63c1.7-23.61-13.76-43.95-34.51-45.44a34.06,34.06,0,0,0-19.77,4.87,197.59,197.59,0,0,0-2,29.5,189.91,189.91,0,0,0,6.69,49.06,33.28,33.28,0,0,0,9,2.06C313.81,237.17,332,219.24,333.7,195.63Z" transform="translate(-15 -24.18)" style="fill:#007161"/><path d="M209,109.43c-.27-2.49-.46-4.82.91-7.21-1.22.2-3,.39-2.92-.33.14-1,.35-2.34-.35-2.21a5.11,5.11,0,0,0-1.82.91,8.11,8.11,0,0,1-4.18,1c-.5,1.64-1.9,4.19-1,6,.47.92,2.92.49,4,.9A18.49,18.49,0,0,0,209,109.43Z" transform="translate(-15 -24.18)" style="fill:#f88667"/><path d="M174.56,33.34s-10.38-.58-24.43,6.06l6.55,28.5a29.93,29.93,0,0,1,15.95-3.51Z" transform="translate(-15 -24.18)" style="fill:#007161"/><path d="M167.7,48.32c.06-4.76.36-9.51.47-14.26a44.79,44.79,0,0,1,6.39-.72l-1.93,31.05c-2.67-4.07-3.94-3.17-4.47-3.66C168.18,56.62,167.65,52.39,167.7,48.32Z" transform="translate(-15 -24.18)" style="fill:#005861"/><path d="M231.25,34.83s-37.14-14.6-61.49-9.62l-1.6,35.52S189.75,56,219.64,69Z" transform="translate(-15 -24.18)" style="fill:#007161"/><rect x="171.98" y="75.26" width="89.07" height="3.2" transform="translate(57.88 232.01) rotate(-70.85)" style="fill:#110239"/><path d="M202.56,109.63V99.57s-30,.24-42.59-3.37-29.44-18.41-36.15-16-11,9.23-2.66,15.77,28.12,12.2,36.69,13.51C163.8,110.38,197.83,109.62,202.56,109.63Z" transform="translate(-15 -24.18)" style="fill:#f0cc01"/><path d="M152.37,103.35c-10.6-4.4-20.6-14-29.14-22.92C116.87,83,113.08,89.62,121.16,96c8.34,6.55,28.11,12.2,36.69,13.51,2.92.45,12.64.49,22.32.42A97.07,97.07,0,0,1,152.37,103.35Z" transform="translate(-15 -24.18)" style="fill:#f09101"/><path d="M152.1,226.11s-5.86,9.47-5,11.72,21.24,14.08,24,13.13,3.27-4.18-.37-7.43c-3.28-2.93-6.49-3.76-8.68-6.62-1.93-2.5,0-8.89,0-8.89Z" transform="translate(-15 -24.18)" style="fill:#110239"/><path d="M117.85,145.83s4.08,3.34,8.39,2.78,46.28,3.8,50.58,7.35-13.31,74.57-13.31,74.57l-14.59-2.43s5.23-51.92,4.35-52.29-22.91-.29-60.49-.29c-9.17,0-19.4-19.28-7.8-32.75Z" transform="translate(-15 -24.18)" style="fill:#007161"/><path d="M124.39,66.73a16.52,16.52,0,0,1-3.93-2.48c-.57,4.32-2.2,12.28-6.6,16.44,0,0,9.11,3.76,16.58,2.1,0,0-.88-10.12.66-15.09A14.66,14.66,0,0,1,124.39,66.73Z" transform="translate(-15 -24.18)" style="fill:#f88667"/><path d="M119.93,79.06c1.43-4.48,5.93-7.25,10.46-7.3a21,21,0,0,1,.71-4.06,14.66,14.66,0,0,1-6.71-1,16.52,16.52,0,0,1-3.93-2.48c-.57,4.32-2.2,12.28-6.6,16.44a38.52,38.52,0,0,0,5.4,1.65A13.57,13.57,0,0,1,119.93,79.06Z" transform="translate(-15 -24.18)" style="fill:#e45940"/><path d="M121.79,42.13s10.76-3.38,14.16-1.26,6.05,8.8,5.46,12.71,3.9,8.44,4,9.85c.1,1.13-3.4,1.95-3.51,2.38s-.32,7.55-5,8.76c-6.63,1.69-15.5-3.65-18.55-7.66S111.67,44.54,121.79,42.13Z" transform="translate(-15 -24.18)" style="fill:#f88667"/><path d="M141.83,42.58c-.57-.57-2-1.49-2.38-2.22a14.77,14.77,0,0,0-.82-1.86c-1.19-1.75-1.48-3-6.4-4.57-4.27-1.33-9.72.21-13.12,2.92A12.45,12.45,0,0,0,116,40.47c-.24.42-1,1.58-.8,2s1.82.94,2.31,1.22a19.75,19.75,0,0,1,2.42,2c4.91,4,12.59,8.26,18,2.73a23.52,23.52,0,0,0,2-2.33,14.52,14.52,0,0,1,1.49,7.14,6.35,6.35,0,0,0,2.19-3.45C144.36,46.15,143.19,43.94,141.83,42.58Z" transform="translate(-15 -24.18)" style="fill:#110239"/><path d="M119.08,42.25c-1.31-.7-3.75-.47-5.1-.18-2.83.61-4.35,2.68-4.85,5.42a26.86,26.86,0,0,0-.51,5,19.48,19.48,0,0,0,1.26,7.65,18.16,18.16,0,0,0,4.5,7.13c1.9,1.73,5.64,3.72,7.51,3,.72-.29,1.76-5.48,1.57-6.84s-.83-1.31-1.85-1.89c-1.71-1-3.63-2.89-2.38-5,1.79-3,5.12-1.6,6.32,2.5,0,0,1.3,2.3,2,1.93S131.63,49,119.08,42.25Z" transform="translate(-15 -24.18)" style="fill:#110239"/><path d="M120.44,57a2.86,2.86,0,0,1,3.19.84c1.28,1.5.68,3.91-.59,3s-.76-1.69-1-2.44A2.37,2.37,0,0,0,120.44,57Z" transform="translate(-15 -24.18)" style="fill:#e45940"/><path d="M79.8,141.89s15.2,11.79,46.71,6.54a68.71,68.71,0,0,1,2.57-17.9c2.64-8.85,6.61-26.1,6.72-35.2.13-10.28-5.51-14.91-5.51-14.91s-5.92,5.54-14.74-1.69c0,0-16.71,4-24.54,23S79.8,141.89,79.8,141.89Z" transform="translate(-15 -24.18)" style="fill:#f0cc01"/><path d="M117.75,93.56c-8.13,8.79-.26,30.42,10,42.49a54.24,54.24,0,0,1,1.31-5.52c1.39-4.66,3.14-11.65,4.51-18.55a16.39,16.39,0,0,1-6.58-7.84C123.84,96.48,121.79,91.3,117.75,93.56Z" transform="translate(-15 -24.18)" style="fill:#f09101"/><path d="M183.68,154a8.26,8.26,0,0,0,3.83,2,5,5,0,0,1,2,.5,10.4,10.4,0,0,0,2.18.78,4.15,4.15,0,0,1,2.07,1c.62.73-.58,1-1.41,1s-3.24-1.49-3.94-.85,2.27,2.33,2.87,2.65c1.41.78,2.45.16,3.9.18.85,0,1.24.28.65,1.07-.43.58-1.29.61-2,.65a8.63,8.63,0,0,1-4.19-.68,10.11,10.11,0,0,0,3.84,1c.75.06,4-.26,4,.94,0,2.41-7.23.87-8.3,0a12,12,0,0,0,3.8,1.29c.77.18,2.62.52,1.61,1.52-1.5,1.47-5.07-1-6.86-1.77a13.91,13.91,0,0,0,3.27,2c1.5.79.39,1.62-1.28,1.07a19.41,19.41,0,0,1-2.31-1.08c-3-1.66-4.11-3.2-5.72-6.08-.58-1-2.72-2.32-2.5-3.32C179.63,156,182.28,155,183.68,154Z" transform="translate(-15 -24.18)" style="fill:#f88667"/><path d="M185.91,152.55l-6.11,8.28s-39.06-16.92-42.57-21.39-15-20.83-16.79-25.19c-4.17-10.11-9.33-22.16,0-24.28,5.09-1.15,8.37.13,11.54,7.63,4.3,10.19,13.44,26.34,17.17,31.25C150.59,130.75,185.91,152.55,185.91,152.55Z" transform="translate(-15 -24.18)" style="fill:#f0cc01"/><path d="M213.4,102.38c.55.88-1,4.65-2.42,6.23-1.14,1.24-2.49.88-3.62.26s-2.67-1-2.86-1.72c-.25-2.8,2.35-.69,3.5-.28,0,0-3.14-1.56-3.1-2.91.12-2.53,4,.39,5.08.88a6.43,6.43,0,0,1-3-2,1,1,0,0,1-.12-1.48c.84-.78,4.13,1.58,4.13,1.58-.59-.42-3-1.29-2-2.4.64-.73,1.61-.12,2.19.06A3.44,3.44,0,0,1,213.4,102.38Z" transform="translate(-15 -24.18)" style="fill:#f88667"/><path d="M206,102.27c.37-.15.72-.22,1.07-.33,0,0,0,0,0,0,.14-1,3.8-1.2,4.61-1.63,2.45-1.28,1.46-2.82.35-2.47-.76.24-2.48.75-3.14,1a12.21,12.21,0,0,1-2.54.29c-.68.13-2.56,1.8-3.15,2.19C201.9,102.13,204.66,102.81,206,102.27Z" transform="translate(-15 -24.18)" style="fill:#f88667"/><path d="M479.07,131c.8,2.2-6.48,6.91-16.28,10.51s-18.4,4.73-19.21,2.53,6.48-6.9,16.28-10.5S478.26,128.84,479.07,131Z" transform="translate(-15 -24.18)" style="fill:#d0d1de"/><path d="M461.24,86.93c.93,2.15-6.08,7.26-15.66,11.41s-18.1,5.77-19,3.62,6.08-7.26,15.66-11.41S460.31,84.78,461.24,86.93Z" transform="translate(-15 -24.18)" style="fill:#d0d1de"/><path d="M474.43,248.81c-.69,2.24-9.34,1.55-19.31-1.54s-17.49-7.41-16.79-9.65,9.34-1.55,19.31,1.54S475.13,246.57,474.43,248.81Z" transform="translate(-15 -24.18)" style="fill:#d0d1de"/><path d="M456.31,296.54c-.88,2.18-9.44.78-19.12-3.12s-16.83-8.82-15.95-11,9.43-.77,19.12,3.12S457.18,294.36,456.31,296.54Z" transform="translate(-15 -24.18)" style="fill:#d0d1de"/><path d="M484.49,190.48c-.12,2.34-8.67,3.8-19.09,3.26s-18.78-2.88-18.66-5.22,8.67-3.8,19.1-3.26S484.61,188.14,484.49,190.48Z" transform="translate(-15 -24.18)" style="fill:#d0d1de"/></svg>