<?xml version="1.0" encoding="utf-8"?>
<!-- Generator: Adobe Illustrator 24.0.2, SVG Export Plug-In . SVG Version: 6.00 Build 0)  -->
<svg version="1.1" xmlns="http://www.w3.org/2000/svg" xmlns:xlink="http://www.w3.org/1999/xlink" x="0px" y="0px"
	 viewBox="0 0 500 354.2" style="enable-background:new 0 0 500 354.2;" xml:space="preserve">
<style type="text/css">
	.st0{fill:#F1EEFD;}
	.st1{fill:none;stroke:#C3C8FF;stroke-miterlimit:10;}
	.st2{fill:#6876EB;}
	.st3{fill:#1C145E;}
	.st4{fill:none;stroke:#6876EB;stroke-width:4;stroke-miterlimit:10;}
	.st5{fill:none;stroke:#6876EB;stroke-miterlimit:10;}
	.st6{fill:#E9A394;}
	.st7{fill:#E37A82;}
	.st8{fill:#16005C;}
	.st9{fill:none;stroke:#16005C;stroke-width:2;stroke-miterlimit:10;}
	.st10{fill:none;stroke:#16005C;stroke-width:0.5;stroke-miterlimit:10;}
	.st11{fill:#1C145C;}
	.st12{fill:#FFFFFF;}
	.st13{fill:#5321D7;}
	.st14{fill:#6A3FDC;}
	.st15{fill:none;stroke:#5321D7;stroke-miterlimit:10;}
	.st16{fill:none;stroke:#C4C6C5;stroke-miterlimit:10;}
	.st17{fill:none;stroke:#1C145E;stroke-miterlimit:10;}
	.st18{fill:none;stroke:#7079F1;stroke-width:2;stroke-miterlimit:10;}
	.st19{fill:#7079F1;}
	.st20{fill:#C3C8FF;}
	.st21{fill:none;stroke:#7079F1;stroke-miterlimit:10;}
	.st22{fill:none;stroke:#1C145E;stroke-width:0.5;stroke-miterlimit:10;}
	.st23{fill:none;stroke:#FFFFFF;stroke-miterlimit:10;}
</style>
<g id="BACKGROUND">
	<path class="st0" d="M57.2,341.6c0,0-32.7-77,8.7-135.1S82,96.8,154.6,45.4c93.3-66,183.3-0.9,210.2,43.3
		c26.8,44.1,118,21.6,91.5,147.2c-20.6,97.4-5.2,101.7-5.2,101.7L57.2,341.6z"/>
	<path class="st1" d="M76.9,320.8c0,0-58-30.3-44-98.5s70.9-84.3,94.3-79.3c43.9,9.4-27.8,37.1-44.9-10.4
		c-21.5-59.6,55.1-104.7,126.2-93c45.7,7.5,67.7,29.4,108.3,43.1c40.4,13.7,57.4-4.6,41.3-15.3c-15.3-10.1-70.8,6.4-51.8,28.9
		c26.1,30.9,89-17,137.8,36.3s6.4,120.2-31.1,125.8c-37.5,5.6-21-48.2,37.5-5.6S435,341.6,435,341.6"/>
</g>
<g id="OBJECTS">
	<g>
		<path class="st2" d="M475.3,345.9H31.8c-2.4,0-4.3-1.9-4.3-4.3l0,0c0-2.4,1.9-4.3,4.3-4.3h447.8v4.3
			C479.6,344,477.7,345.9,475.3,345.9z"/>
		<path class="st3" d="M191.2,345.9H31.8c-2.4,0-4.3-1.9-4.3-4.3v-4.3h167.9v4.3C195.4,344,193.5,345.9,191.2,345.9z"/>
	</g>
	<g>
		<path class="st3" d="M257.4,174.8c-19,36.5-40.3,51.4-40.3,51.4l18.4,29.4l32.2-33.4L257.4,174.8z"/>
		<path class="st3" d="M304.5,166.1l-47.1,8.7c-3,89.1-4.1,162.5-4.1,162.5h84.5c0,0,2.5-136.4-11.1-166.2L304.5,166.1z"/>
		<line class="st4" x1="299" y1="211.5" x2="322" y2="209.6"/>
		<path class="st5" d="M288.5,192.4c0,0,14.6,99.4,1.9,139.6"/>
		<path class="st5" d="M273.3,242.2c0,0,14.1,5.7,32.3,6.3s6.9,10.3-20.1,8.5"/>
		<polygon class="st6" points="276.9,162.5 288.5,193.4 304.5,166.1 294,148.9 		"/>
		<polygon class="st2" points="288.5,193.4 310.2,187.4 304.5,166.1 		"/>
		<polygon class="st2" points="279.5,169.4 267.7,182.5 288.5,193.4 		"/>
		<path class="st6" d="M235.5,255.6c0,0,6.9-14.3-7.9-32.8c-8.2-10.2-12-27.9-12-27.9l-12.3,1.9l11.3,58.9H235.5z"/>
		<polygon class="st6" points="200.8,176.4 195.8,181 202.5,187 181.5,186.6 181,193.8 203.4,196.8 215.7,194.9 		"/>
		<polygon class="st6" points="204.5,187.7 184.3,179.4 183,183 199.9,190.1 		"/>
		<path class="st3" d="M326.7,171.1c0,0,27.2,15.5,35.8,73.4l-31.5,7.6L326.7,171.1z"/>
		<g>
			<polygon class="st6" points="267.7,124.8 257.4,151 265.3,153.4 267.7,168.2 292.7,162.5 296.4,122.3 			"/>
			<polygon class="st7" points="284.4,131 265.2,131 267.3,125.3 284.4,124.3 			"/>
			<path class="st8" d="M294.4,143c0,0-12.2-2.5-12.2-15.2c0,0-18.1,2.5-24.4-7.4c-7.4-11.7,3.9-25.1,13.3-22.3c0,0-5.9,5.8,3.1,6.5
				c6.4,0.5,18.1-8,22.2,0.2c0,0,32.2,7.3,8.2,37.3L294.4,143z"/>
			<path class="st9" d="M282.2,126.8c0,0-24.2,4.7-29.3-12.7c-3-10.2,7.2-16,7.2-16"/>
			<g>
				<circle class="st10" cx="271.9" cy="141" r="9.2"/>
				<line class="st10" x1="280.6" y1="138.1" x2="293.6" y2="138.8"/>
			</g>
			<path class="st6" d="M310.2,145.3c0,5.7-7.6,10.3-13.3,10.3c-5.7,0-7.3-4.6-7.3-10.3s4.6-10.3,10.3-10.3
				C305.6,135,310.2,139.6,310.2,145.3z"/>
		</g>
		<polygon class="st6" points="358.7,245.5 358.7,292.8 335.1,292.8 333.1,251.6 		"/>
		<polygon class="st11" points="255.6,234.8 256.6,201.8 241.3,249.6 		"/>
		<polygon class="st7" points="278.1,165.6 292.7,162.5 280.7,172.7 		"/>
		<ellipse class="st8" cx="269.5" cy="141.6" rx="1.8" ry="3.7"/>
		<path class="st8" d="M274.2,132.7c0-4.9-3.9-1.6-3.9-1.6L274.2,132.7z"/>
		<path class="st12" d="M270.3,154.4l5.6-1.5C275.9,152.9,278.3,173.6,270.3,154.4z"/>
	</g>
	<g>
		<path class="st13" d="M150.2,247.1c0,0,37.6-5.8,38.4,59.8c0.1,10.6,6.9,30.5,6.9,30.5h-34.1L150.2,247.1z"/>
		<path class="st14" d="M110.8,241.3l-22.7,5.4l6.9,90.7h88.5c0,0-3-71.8-36.3-93.3L110.8,241.3z"/>
		<path class="st14" d="M88.1,246.7C64.7,252,70.2,270,74.7,306.9c-11.7,9.5-0.5,13.8-0.5,13.8c-12.8,13.6,3.2,16.7,3.2,16.7h42.8
			C120.2,337.4,111.6,241.3,88.1,246.7z"/>
		<line class="st15" x1="117.6" y1="316.4" x2="107.4" y2="269.3"/>
		<path class="st6" d="M77.4,337.4c0,0,7.2-16.6,30-24.9c18.9-6.9,46.6,11,64.3-6l3.3,19.2l-54.9,11.7H77.4z"/>
		<g>
			<g>
				<polygon class="st6" points="152.6,194.6 169.6,220.3 158.7,224.2 156.8,245.1 124.2,233.8 127.3,191.2 				"/>
				<polygon class="st7" points="127.5,221.6 110.8,241.3 132.2,267.5 141.9,236.9 				"/>
				<polygon class="st7" points="133.1,209.5 157,201.2 152.6,194.6 129.1,197 				"/>
				<path class="st8" d="M131,218.5c0,0,7.2,14.5,2.2-13.4c0,0,6.9,0.8,12.2-8.3c0,0-1.7,14.7,14.1,0c15.8-14.7-4.3-26.3-28.7-21.9
					c-21.2,3.8-42.4,15.7-11.4,56.4L131,218.5z"/>
				<path class="st6" d="M127.2,224.2c-1.6,2.2-4.4,4.2-7.3,4.6c-5.8,0.8-11.5-3.7-12.3-9.6s2.1-8.8,7.9-9.7
					c3.3-0.5,7.1,0.5,9.9,2.5C126.2,213.1,127.2,224.2,127.2,224.2z"/>
				
					<ellipse transform="matrix(0.9651 -0.2619 0.2619 0.9651 -50.4733 46.5111)" class="st8" cx="149.2" cy="212.6" rx="1.6" ry="3.7"/>
				<path class="st8" d="M143.6,207.5c0,0-0.8-4.8,3.6-2.5L143.6,207.5z"/>
			</g>
			<polygon class="st14" points="108.2,242.1 112,237.6 110.6,234.3 119.4,231.2 144.5,243.9 145.5,253.5 141.2,252.2 134.3,278.1 
							"/>
			<polyline class="st15" points="130.9,248.4 145.5,253.5 144.5,243.9 			"/>
			<path class="st8" d="M133.2,205.1c0,0,2.9,17.1,7.2,20.6c1.4,1.2,4.1-1.8,16.4-2c7.5-0.2,7.5,26.1-2.5,25.3s-25.1-7-27.4-26.1
				C125,206.1,133.2,205.1,133.2,205.1z"/>
			<path class="st16" d="M145.5,228.8c0,0,2.5,4.7,7.5,1.5"/>
		</g>
	</g>
	<g>
		<path class="st3" d="M202.4,326.6h-84v6.2c0,2.5,2,4.6,4.6,4.6h79.4c2.5,0,4.6-2,4.6-4.6v-1.7C207,328.6,204.9,326.6,202.4,326.6z
			"/>
		<g>
			<path class="st3" d="M270.6,264.2h-97.7c-2.9,0-5.4,2.2-5.7,5l-7.9,61.6c-0.4,3.4,2.2,6.5,5.7,6.5h97.7c2.9,0,5.4-2.2,5.7-5
				l7.9-61.6C276.8,267.3,274.1,264.2,270.6,264.2z"/>
			<path class="st2" d="M275.3,264.2h-97.7c-2.9,0-5.4,2.2-5.7,5l-7.9,61.6c-0.4,3.4,2.2,6.5,5.7,6.5h97.7c2.9,0,5.4-2.2,5.7-5
				l7.9-61.6C281.5,267.3,278.8,264.2,275.3,264.2z"/>
			
				<ellipse transform="matrix(0.7254 -0.6883 0.6883 0.7254 -145.9194 235.7682)" class="st12" cx="222.6" cy="300.8" rx="10.2" ry="9.1"/>
		</g>
		<line class="st17" x1="273.2" y1="336.8" x2="151.6" y2="336.8"/>
	</g>
	<g>
		<g>
			<g>
				<path class="st8" d="M326.9,254.4l40.4,0.8l-9.1-49.4l-21.5,2.4c0,0-9.7,14.3-2,25.4C343.3,246.1,326,246.5,326.9,254.4z"/>
				<path class="st18" d="M336.7,208.2c0,0-9.7,14.3-2,25.4c8.6,12.5-8.6,13-7.7,20.8"/>
			</g>
			<path class="st19" d="M344.7,248.4c0,0-18.4,18-28,85.9h20.4L344.7,248.4z"/>
			<path class="st20" d="M393.3,243.4l-8,90.9h-59.4l7.4-34.7c0,0-22.6-11.8,11.4-51.2l8.5-4.4l36.8-2.8L393.3,243.4z"/>
			<path class="st21" d="M344.7,289.1c0,0-3.6,6.1-0.1,11l-5,34.2"/>
			<line class="st21" x1="336.4" y1="299.8" x2="370.8" y2="300.8"/>
			<line class="st21" x1="377.6" y1="316.9" x2="374" y2="273.1"/>
			<path class="st20" d="M393.3,243.4c0,0,3.3,4.1,7.1,13.7c5.4,13.6,11.8,38.1,11.4,77.3h-26.4L393.3,243.4z"/>
			<path class="st6" d="M411.7,337.3c0,0-13.2-30.2-46.5-21.6c-36.3,9.4-49.8,7.7-49.8,7.7l-2.8,13.9H411.7z"/>
			<g>
				<path class="st19" d="M377.1,309.4l-11.8,2.6l26.8,25.3h25.2C417.4,337.3,406.5,311,377.1,309.4z"/>
				<line class="st1" x1="377.9" y1="317.3" x2="383.5" y2="315.5"/>
			</g>
			<polygon class="st6" points="315.5,323.4 298.3,319.9 285.9,337.3 312.7,337.3 			"/>
			<polygon class="st19" points="344.7,289.1 376.8,257.1 370.8,254.3 393.3,243.4 383,236.8 359,236.8 344.7,254.6 348.7,255.6 
				344.7,258.4 			"/>
			<g>
				<polygon class="st6" points="367.1,247.7 377.6,240.5 366.3,215.2 348.8,226.2 353.7,247.2 344.7,289.1 				"/>
				<polygon class="st7" points="350.2,232.2 362.5,225.8 351.5,237.8 				"/>
				<polygon class="st6" points="327.7,195.6 322.4,225.4 330.4,225.4 339.5,237.8 362.5,225.8 346.4,189.9 				"/>
				<polygon class="st7" points="326.4,202.8 325.9,206.1 347.1,203.2 346.8,199.2 				"/>
				<path class="st8" d="M386.4,193.4c-5.3-14.4-11.8-20-11.8-20c-13-12.9-35.3,1.4-35.3,1.4c-28.5-6.9-16.9,28.5-16.9,28.5
					l23.2-2.9c3.2,19.5,14.9,9.6,14.9,9.6l5.4,9.8c0,0-5.5,4.8,0.2,13.1c4.7,6.8-6.5,9.1-3.6,16.4l44.9-9.3
					C407.4,210.6,396,219.4,386.4,193.4z"/>
				<path class="st18" d="M320.5,203.6c0,0-4.1-20.2,3.4-26.8c3.9-3.4,16.3-1.9,16.3-1.9"/>
				<path class="st9" d="M410.3,239.3c0,0,3.6-13.5-16-28.7"/>
				<circle class="st6" cx="361.1" cy="211.5" r="9.7"/>
			</g>
		</g>
		<path class="st12" d="M336.4,224.3l6-1.5C342.4,222.8,344.5,239.9,336.4,224.3z"/>
		<g>
			<path class="st22" d="M331.4,214.2c0,0,1.9-11.6,6.1,0"/>
			<path class="st8" d="M332.9,205.3c0,0,2.3-3.9,5.1,0H332.9z"/>
		</g>
	</g>
	<g>
		<g>
			<path class="st20" d="M242.7,100.5c-3.5-9.7-14.4-14.5-24-10.4c-8.3,3.6-12.6,12.9-10.1,21.5c1.4,4.8,4.7,8.5,8.7,10.7
				c3.7,2,6.9,4.9,9.3,8.4l0.7,1l13.4-4.8l-0.1-1.2c-0.4-4.3,0.3-8.6,1.9-12.6C244,109.2,244.2,104.8,242.7,100.5z"/>
			<path class="st20" d="M242.7,100.5c-3.5-9.7-14.4-14.5-24-10.4c-8.3,3.6-12.6,12.9-10.1,21.5c1.4,4.8,4.7,8.5,8.7,10.7
				c3.7,2,6.9,4.9,9.3,8.4l0.7,1l13.4-4.8l-0.1-1.2c-0.4-4.3,0.3-8.6,1.9-12.6C244,109.2,244.2,104.8,242.7,100.5z"/>
			<path class="st23" d="M230.3,127.8l-10.7-15.1c0,0,0.2-3.1,3.6-2.6c3.4,0.5,5.4,5.8,3,4.9s-3.2-7.1,1.3-8c4.5-1,6.1,9.4,3.5,7.4
				c-2.5-2-2-8.6,2.9-8.6l2.9,21.8"/>
			<path class="st8" d="M240.4,137.3l-6.3,2.3c-2.4,0.9-5-0.4-5.9-2.8l-1.3-3.7c-0.9-2.4,0.4-5,2.8-5.9l6.3-2.3
				c2.4-0.9,5,0.4,5.9,2.8l1.3,3.7C244,133.8,242.8,136.4,240.4,137.3z"/>
			
				<rect x="223.9" y="124.6" transform="matrix(0.941 -0.3383 0.3383 0.941 -30.0368 86.8296)" class="st2" width="20.2" height="9.9"/>
		</g>
		<line class="st1" x1="225.3" y1="84.1" x2="223.4" y2="73.2"/>
		<line class="st1" x1="211.6" y1="90.5" x2="202.5" y2="81.7"/>
		<line class="st1" x1="202.2" y1="106.6" x2="191.8" y2="107.4"/>
		<line class="st1" x1="240.3" y1="90" x2="244.9" y2="81.4"/>
	</g>
	<g>
		<g>
			<g>
				<path class="st11" d="M386.1,169.9h64.2c2.2,0,4.4-1.8,4.8-4l6.6-36.6c0.4-2.2-1.1-4-3.3-4h-64.2c-2.2,0-4.4,1.8-4.8,4
					l-6.6,36.6C382.4,168.1,383.9,169.9,386.1,169.9z"/>
				<g>
					
						<ellipse transform="matrix(0.7383 -0.6744 0.6744 0.7383 14.3444 331.9922)" class="st12" cx="435" cy="147.5" rx="4.6" ry="3.8"/>
					
						<ellipse transform="matrix(0.7383 -0.6744 0.6744 0.7383 11.006 323.388)" class="st12" cx="422.3" cy="147.5" rx="4.6" ry="3.8"/>
					
						<ellipse transform="matrix(0.7383 -0.6744 0.6744 0.7383 7.6677 314.7837)" class="st12" cx="409.5" cy="147.5" rx="4.6" ry="3.8"/>
				</g>
			</g>
			<polygon class="st11" points="420.7,167.5 398.3,180.7 402.3,166.4 			"/>
		</g>
		<g>
			<g>
				<path class="st20" d="M179.2,164.4H115c-2.2,0-4.4-1.8-4.8-4l-6.6-36.6c-0.4-2.2,1.1-4,3.3-4h64.2c2.2,0,4.4,1.8,4.8,4l6.6,36.6
					C182.9,162.6,181.4,164.4,179.2,164.4z"/>
				<g>
					
						<ellipse transform="matrix(0.6744 -0.7383 0.7383 0.6744 -62.4968 142.4292)" class="st12" cx="130.3" cy="142.1" rx="3.8" ry="4.6"/>
					
						<ellipse transform="matrix(0.6744 -0.7383 0.7383 0.6744 -58.3435 151.8485)" class="st12" cx="143" cy="142.1" rx="3.8" ry="4.6"/>
					
						<ellipse transform="matrix(0.6744 -0.7383 0.7383 0.6744 -54.1902 161.2678)" class="st12" cx="155.8" cy="142.1" rx="3.8" ry="4.6"/>
				</g>
			</g>
			<polygon class="st20" points="156.3,162 159.8,174.8 174,161.1 			"/>
		</g>
	</g>
</g>
<g id="DESIGNED_BY_FREEPIK">
</g>
</svg>
