<?xml version="1.0" encoding="utf-8"?>
<!-- Generator: Adobe Illustrator 24.0.2, SVG Export Plug-In . SVG Version: 6.00 Build 0)  -->
<svg version="1.1" id="Layer_1" xmlns="http://www.w3.org/2000/svg" xmlns:xlink="http://www.w3.org/1999/xlink" x="0px" y="0px"
	 viewBox="0 0 199.3 65.9" style="enable-background:new 0 0 199.3 65.9;" xml:space="preserve">
<style type="text/css">
	.st0{fill:#F1CB00;}
	.st1{fill-rule:evenodd;clip-rule:evenodd;fill:#8FD2CA;}
	.st2{fill-rule:evenodd;clip-rule:evenodd;fill:#007161;}
	.st3{fill:#58595B;}
</style>
<g>
	<polygon class="st0" points="77.2,62.5 77,63 75.6,62.4 69.7,29.4 81.1,19.1 81.1,17.5 82.8,17.1 105.4,24.7 98.1,58.4 97.1,59.4 
		96,58.6 101.8,26.6 84,20.3 84.5,48.9 83.3,49.9 	"/>
	<path class="st1" d="M84.6,11.5c-0.8-4.9,2.5-8.9,7.4-8.9c4.9,0,9.5,4,10.3,8.9c0.8,4.9-2.5,8.8-7.4,8.8
		C90,20.3,85.4,16.4,84.6,11.5z"/>
	<polygon class="st1" points="86.6,24.8 98.9,29.2 94.5,57.3 86.1,50.5 	"/>
	<path class="st2" d="M15.8,38.6l4.1,2.3c-0.1,0.2-0.3,0.5-0.6,1c-2,3.1-4.7,4.7-8.2,4.7c-2.3,0-4.3-0.7-5.9-2c-1.9-1.6-2.9-4-2.9-7
		c0-2.9,0.9-5.5,2.6-7.7c2-2.5,4.7-3.8,8-3.8c2.8,0,5,0.8,6.6,2.5c0.7,0.7,1.2,1.7,1.7,3l-4.7,1.1c-0.7-1.9-1.8-2.8-3.5-2.8
		c-1.6,0-3,0.8-4.1,2.5c-1,1.5-1.5,3.2-1.5,5.2c0,1.7,0.4,3,1.2,3.9c0.7,0.8,1.5,1.1,2.5,1.1c0.8,0,1.6-0.3,2.4-0.8
		C14.3,41,15.1,40,15.8,38.6z"/>
	<path class="st2" d="M19.8,46l4.4-19.6h8.6c1,0,1.8,0.1,2.5,0.3c1.1,0.3,2,0.8,2.7,1.6c0.8,1,1.3,2.3,1.3,3.8
		c0,1.5-0.4,2.8-1.2,3.8c-0.4,0.6-1,1.1-1.6,1.4c-0.5,0.3-1.2,0.6-2.1,0.9l3.2,7.7h-5.3l-2.6-7h-3.4l-1.6,7H19.8z M28.3,30l-1.2,5.3
		h3.8c1,0,1.8-0.2,2.3-0.5c0.9-0.6,1.3-1.5,1.3-2.6c0-1.5-1-2.2-2.9-2.2H28.3z"/>
	<polygon class="st2" points="43.1,26.4 57.2,26.4 56.3,30.2 47.1,30.2 46.2,34 55.1,34 54.3,37.6 45.4,37.6 44.3,42.3 55,42.3 
		54.2,46 38.7,46 	"/>
	<path class="st2" d="M55.2,46l4.4-19.6H67c1.4,0,2.7,0.2,3.8,0.6c3,1,4.5,3.4,4.5,7.2c0,1.8-0.3,3.5-1,5.2
		c-0.7,1.7-1.6,3.1-2.9,4.2c-1.2,1.1-2.8,1.8-4.6,2.2C65.7,45.9,64,46,61.7,46H55.2z M66,30.2h-2.4l-2.7,12.1H63
		c1.7,0,3-0.2,3.9-0.7c0.9-0.5,1.6-1.4,2.3-2.6c0.7-1.4,1.1-3,1.1-4.7c0-1.4-0.4-2.5-1.2-3.2C68.4,30.5,67.4,30.2,66,30.2z"/>
	<path class="st2" d="M115.3,38.6l4.1,2.3c-0.1,0.2-0.3,0.5-0.6,1c-2,3.1-4.7,4.7-8.2,4.7c-2.3,0-4.3-0.7-5.9-2
		c-1.9-1.6-2.9-4-2.9-7c0-2.9,0.9-5.5,2.6-7.7c2-2.5,4.7-3.8,8-3.8c2.8,0,5,0.8,6.6,2.5c0.7,0.7,1.2,1.7,1.7,3l-4.7,1.1
		c-0.7-1.9-1.8-2.8-3.5-2.8c-1.6,0-3,0.8-4.1,2.5c-1,1.5-1.5,3.2-1.5,5.2c0,1.7,0.4,3,1.2,3.9c0.7,0.8,1.5,1.1,2.5,1.1
		c0.8,0,1.6-0.3,2.4-0.8C113.9,41,114.6,40,115.3,38.6z"/>
	<path class="st2" d="M138.7,40.4c-1.2,2.2-2.7,3.9-4.6,4.9c-1.5,0.8-3.2,1.2-5.1,1.2c-3,0-5.2-0.9-6.8-2.6
		c-1.3-1.4-1.9-3.4-1.9-5.9c0-2.8,0.8-5.4,2.5-7.7c2.1-2.9,5-4.4,8.8-4.4c2.5,0,4.5,0.7,6.1,2c1.8,1.5,2.7,3.6,2.7,6.3
		C140.3,36.4,139.7,38.5,138.7,40.4z M130.9,29.9c-2.1,0.1-3.6,1.3-4.7,3.6c-0.7,1.5-1.1,3.1-1.1,4.7c0,1.5,0.4,2.6,1.2,3.4
		c0.7,0.7,1.7,1.1,2.8,1.1c2,0,3.6-1.1,4.8-3.2c0.9-1.6,1.4-3.4,1.4-5.2c0-1.8-0.6-3.1-1.9-3.8C132.7,30.1,131.9,29.9,130.9,29.9z"
		/>
	<polygon class="st2" points="157,26.4 164.4,26.4 160,46 155.5,46 158.9,30.9 151.6,46 147.5,46 147,30.6 143.6,46 139,46 
		143.4,26.4 150.6,26.4 151,39.3 	"/>
	<polygon class="st2" points="165.6,26.4 179.6,26.4 178.8,30.2 169.5,30.2 168.6,34 177.6,34 176.8,37.6 167.8,37.6 166.8,42.3 
		177.4,42.3 176.6,46 161.1,46 	"/>
	<path class="st2" d="M177.5,46l4.4-19.6h8.6c1,0,1.8,0.1,2.5,0.3c1.1,0.3,2,0.8,2.7,1.6c0.8,1,1.3,2.3,1.3,3.8
		c0,1.5-0.4,2.8-1.2,3.8c-0.4,0.6-1,1.1-1.6,1.4c-0.4,0.3-1.1,0.6-2.1,0.9l3.2,7.7h-5.3l-2.6-7h-3.4l-1.6,7H177.5z M186,30l-1.2,5.3
		h3.8c1,0,1.8-0.2,2.3-0.5c0.9-0.6,1.3-1.5,1.3-2.6c0-1.5-1-2.2-2.9-2.2H186z"/>
</g>
<g>
	<path class="st3" d="M103.5,56.5c0.1,0.1,0.1,0.2,0.2,0.3c0.1,0.1,0.2,0.1,0.3,0.2c0.1,0,0.3,0.1,0.4,0.1c0.1,0,0.2,0,0.3,0
		c0.1,0,0.2,0,0.3-0.1s0.2-0.1,0.2-0.2c0.1-0.1,0.1-0.2,0.1-0.3c0-0.1,0-0.2-0.1-0.3c-0.1-0.1-0.2-0.1-0.3-0.2
		c-0.1-0.1-0.3-0.1-0.5-0.1c-0.2,0-0.3-0.1-0.5-0.1c-0.2,0-0.4-0.1-0.5-0.2c-0.2-0.1-0.3-0.2-0.5-0.3c-0.1-0.1-0.2-0.2-0.3-0.4
		c-0.1-0.2-0.1-0.3-0.1-0.6c0-0.2,0.1-0.5,0.2-0.6c0.1-0.2,0.2-0.3,0.4-0.5s0.4-0.2,0.6-0.3s0.4-0.1,0.7-0.1c0.3,0,0.5,0,0.7,0.1
		s0.4,0.1,0.6,0.3s0.3,0.3,0.4,0.5c0.1,0.2,0.2,0.4,0.2,0.7h-1c0-0.1,0-0.3-0.1-0.4s-0.1-0.2-0.2-0.2c-0.1-0.1-0.2-0.1-0.3-0.1
		c-0.1,0-0.2,0-0.4,0c-0.1,0-0.2,0-0.3,0s-0.2,0-0.2,0.1c-0.1,0-0.1,0.1-0.2,0.2c0,0.1-0.1,0.2-0.1,0.3c0,0.1,0,0.2,0.1,0.2
		c0,0.1,0.1,0.1,0.2,0.2s0.3,0.1,0.4,0.1c0.2,0,0.4,0.1,0.7,0.2c0.1,0,0.2,0.1,0.4,0.1c0.2,0,0.3,0.1,0.5,0.2
		c0.2,0.1,0.3,0.2,0.4,0.4s0.2,0.4,0.2,0.7c0,0.2,0,0.4-0.1,0.6c-0.1,0.2-0.2,0.4-0.4,0.5c-0.2,0.1-0.4,0.2-0.6,0.3
		c-0.3,0.1-0.5,0.1-0.9,0.1c-0.3,0-0.5,0-0.8-0.1c-0.3-0.1-0.5-0.2-0.7-0.3c-0.2-0.1-0.3-0.3-0.5-0.5s-0.2-0.5-0.2-0.8h1
		C103.4,56.2,103.4,56.4,103.5,56.5z"/>
	<path class="st3" d="M106.9,55.1c0.1-0.2,0.2-0.4,0.4-0.6c0.2-0.2,0.3-0.3,0.6-0.4c0.2-0.1,0.5-0.1,0.7-0.1c0.3,0,0.5,0,0.8,0.1
		c0.2,0.1,0.4,0.2,0.6,0.4c0.2,0.2,0.3,0.4,0.4,0.6c0.1,0.2,0.1,0.5,0.1,0.8s0,0.5-0.1,0.8s-0.2,0.4-0.4,0.6
		c-0.2,0.2-0.4,0.3-0.6,0.4c-0.2,0.1-0.5,0.1-0.8,0.1c-0.3,0-0.5,0-0.7-0.1c-0.2-0.1-0.4-0.2-0.6-0.4c-0.2-0.2-0.3-0.4-0.4-0.6
		c-0.1-0.2-0.1-0.5-0.1-0.8S106.8,55.4,106.9,55.1z M107.8,56.3c0,0.1,0.1,0.3,0.1,0.4c0.1,0.1,0.2,0.2,0.3,0.3s0.2,0.1,0.4,0.1
		c0.2,0,0.3,0,0.4-0.1c0.1-0.1,0.2-0.1,0.3-0.3c0.1-0.1,0.1-0.2,0.1-0.4c0-0.1,0-0.3,0-0.4s0-0.3,0-0.4c0-0.1-0.1-0.3-0.1-0.4
		c-0.1-0.1-0.2-0.2-0.3-0.3c-0.1-0.1-0.2-0.1-0.4-0.1c-0.2,0-0.3,0-0.4,0.1c-0.1,0.1-0.2,0.2-0.3,0.3c-0.1,0.1-0.1,0.2-0.1,0.4
		c0,0.1,0,0.3,0,0.4S107.8,56.2,107.8,56.3z"/>
	<path class="st3" d="M112.7,54.8c-0.2,0-0.3,0-0.4,0.1s-0.2,0.2-0.3,0.3c-0.1,0.1-0.1,0.2-0.1,0.4c0,0.1,0,0.3,0,0.4
		c0,0.1,0,0.3,0,0.4c0,0.1,0.1,0.3,0.1,0.4s0.1,0.2,0.2,0.3c0.1,0.1,0.2,0.1,0.4,0.1c0.2,0,0.4-0.1,0.5-0.2c0.1-0.1,0.2-0.3,0.2-0.5
		h0.9c-0.1,0.5-0.2,0.8-0.5,1.1c-0.3,0.2-0.7,0.4-1.1,0.4c-0.3,0-0.5,0-0.7-0.1c-0.2-0.1-0.4-0.2-0.6-0.4c-0.2-0.2-0.3-0.3-0.4-0.6
		c-0.1-0.2-0.1-0.5-0.1-0.7c0-0.3,0-0.5,0.1-0.8c0.1-0.2,0.2-0.4,0.4-0.6s0.3-0.3,0.6-0.4s0.5-0.1,0.8-0.1c0.2,0,0.4,0,0.6,0.1
		c0.2,0.1,0.4,0.1,0.5,0.2c0.2,0.1,0.3,0.2,0.4,0.4s0.1,0.4,0.2,0.6h-0.9C113.3,55,113.1,54.8,112.7,54.8z"/>
	<path class="st3" d="M114.9,53.6v-0.8h1v0.8H114.9z M115.8,54.2v3.5h-1v-3.5H115.8z"/>
	<path class="st3" d="M117.6,56.8c0.1,0.1,0.4,0.2,0.6,0.2c0.2,0,0.4,0,0.5-0.1c0.1-0.1,0.2-0.2,0.3-0.3h0.9
		c-0.1,0.4-0.3,0.7-0.6,0.9c-0.3,0.2-0.6,0.3-1,0.3c-0.3,0-0.5,0-0.7-0.1c-0.2-0.1-0.4-0.2-0.6-0.4c-0.2-0.2-0.3-0.4-0.4-0.6
		c-0.1-0.2-0.1-0.5-0.1-0.7c0-0.3,0-0.5,0.1-0.7c0.1-0.2,0.2-0.4,0.4-0.6c0.2-0.2,0.3-0.3,0.6-0.4c0.2-0.1,0.5-0.1,0.7-0.1
		c0.3,0,0.6,0.1,0.8,0.2s0.4,0.3,0.5,0.5c0.1,0.2,0.2,0.4,0.3,0.7s0.1,0.5,0.1,0.8h-2.5C117.3,56.5,117.4,56.7,117.6,56.8z
		 M118.6,55c-0.1-0.1-0.3-0.2-0.5-0.2c-0.2,0-0.3,0-0.4,0.1c-0.1,0.1-0.2,0.1-0.2,0.2c-0.1,0.1-0.1,0.2-0.1,0.2c0,0.1,0,0.2,0,0.2
		h1.6C118.8,55.3,118.8,55.1,118.6,55z"/>
	<path class="st3" d="M122.9,57.2c-0.1,0.2-0.3,0.3-0.4,0.4c-0.2,0.1-0.4,0.1-0.6,0.1c-0.3,0-0.5-0.1-0.7-0.2s-0.4-0.2-0.5-0.4
		c-0.1-0.2-0.2-0.4-0.3-0.6c-0.1-0.2-0.1-0.5-0.1-0.7c0-0.2,0-0.5,0.1-0.7c0.1-0.2,0.2-0.4,0.3-0.6c0.1-0.2,0.3-0.3,0.5-0.4
		c0.2-0.1,0.4-0.2,0.7-0.2c0.2,0,0.4,0,0.6,0.1c0.2,0.1,0.3,0.2,0.4,0.4h0v-1.8h1v4.9h-0.9L122.9,57.2L122.9,57.2z M122.8,55.5
		c0-0.1-0.1-0.3-0.1-0.4c-0.1-0.1-0.2-0.2-0.3-0.2c-0.1-0.1-0.2-0.1-0.4-0.1s-0.3,0-0.4,0.1c-0.1,0.1-0.2,0.1-0.3,0.3
		c-0.1,0.1-0.1,0.2-0.1,0.4c0,0.1,0,0.3,0,0.4c0,0.1,0,0.3,0,0.4c0,0.1,0.1,0.3,0.2,0.4s0.2,0.2,0.3,0.3s0.2,0.1,0.4,0.1
		c0.2,0,0.3,0,0.4-0.1c0.1-0.1,0.2-0.1,0.3-0.3s0.1-0.2,0.1-0.4c0-0.1,0-0.3,0-0.4S122.8,55.6,122.8,55.5z"/>
	<path class="st3" d="M124.4,55.2c0-0.2,0.1-0.4,0.2-0.6c0.1-0.1,0.2-0.3,0.4-0.4c0.2-0.1,0.3-0.2,0.5-0.2c0.2,0,0.4-0.1,0.6-0.1
		c0.2,0,0.4,0,0.5,0c0.2,0,0.3,0.1,0.5,0.1c0.1,0.1,0.3,0.2,0.4,0.3c0.1,0.1,0.1,0.3,0.1,0.5v1.8c0,0.2,0,0.3,0,0.5
		c0,0.1,0,0.3,0.1,0.3h-1c0-0.1,0-0.1,0-0.2c0-0.1,0-0.1,0-0.2c-0.2,0.2-0.3,0.3-0.5,0.3s-0.4,0.1-0.6,0.1c-0.2,0-0.3,0-0.5-0.1
		c-0.1,0-0.3-0.1-0.4-0.2s-0.2-0.2-0.3-0.3c-0.1-0.1-0.1-0.3-0.1-0.5c0-0.2,0-0.4,0.1-0.5c0.1-0.1,0.2-0.2,0.3-0.3
		c0.1-0.1,0.2-0.1,0.4-0.2c0.1,0,0.3-0.1,0.4-0.1s0.3,0,0.4-0.1c0.1,0,0.3,0,0.4-0.1s0.2-0.1,0.3-0.1c0.1-0.1,0.1-0.1,0.1-0.2
		c0-0.1,0-0.2-0.1-0.2c0-0.1-0.1-0.1-0.1-0.1c-0.1,0-0.1-0.1-0.2-0.1c-0.1,0-0.2,0-0.2,0c-0.2,0-0.3,0-0.4,0.1s-0.2,0.2-0.2,0.4
		H124.4z M126.6,55.9c0,0-0.1,0.1-0.2,0.1c-0.1,0-0.1,0-0.2,0.1s-0.1,0-0.2,0c-0.1,0-0.2,0-0.2,0c-0.1,0-0.1,0-0.2,0.1
		c-0.1,0-0.1,0.1-0.2,0.1s-0.1,0.1-0.1,0.1c0,0.1,0,0.1,0,0.2c0,0.1,0,0.2,0,0.2c0,0.1,0.1,0.1,0.1,0.1c0.1,0,0.1,0.1,0.2,0.1
		c0.1,0,0.1,0,0.2,0c0.2,0,0.3,0,0.4-0.1c0.1-0.1,0.2-0.1,0.2-0.2c0-0.1,0.1-0.2,0.1-0.3c0-0.1,0-0.2,0-0.2V55.9z"/>
	<path class="st3" d="M130.8,57.2c-0.1,0.2-0.3,0.3-0.4,0.4c-0.2,0.1-0.4,0.1-0.6,0.1c-0.3,0-0.5-0.1-0.7-0.2s-0.4-0.2-0.5-0.4
		c-0.1-0.2-0.2-0.4-0.3-0.6c-0.1-0.2-0.1-0.5-0.1-0.7c0-0.2,0-0.5,0.1-0.7c0.1-0.2,0.2-0.4,0.3-0.6c0.1-0.2,0.3-0.3,0.5-0.4
		c0.2-0.1,0.4-0.2,0.7-0.2c0.2,0,0.4,0,0.6,0.1c0.2,0.1,0.3,0.2,0.4,0.4h0v-1.8h1v4.9h-0.9L130.8,57.2L130.8,57.2z M130.7,55.5
		c0-0.1-0.1-0.3-0.1-0.4c-0.1-0.1-0.2-0.2-0.3-0.2c-0.1-0.1-0.2-0.1-0.4-0.1s-0.3,0-0.4,0.1c-0.1,0.1-0.2,0.1-0.3,0.3
		c-0.1,0.1-0.1,0.2-0.1,0.4c0,0.1,0,0.3,0,0.4c0,0.1,0,0.3,0,0.4c0,0.1,0.1,0.3,0.2,0.4s0.2,0.2,0.3,0.3s0.2,0.1,0.4,0.1
		c0.2,0,0.3,0,0.4-0.1c0.1-0.1,0.2-0.1,0.3-0.3s0.1-0.2,0.1-0.4c0-0.1,0-0.3,0-0.4S130.8,55.6,130.7,55.5z"/>
	<path class="st3" d="M136.7,57.2c-0.1,0.2-0.3,0.3-0.4,0.4c-0.2,0.1-0.4,0.1-0.6,0.1c-0.3,0-0.5-0.1-0.7-0.2s-0.4-0.2-0.5-0.4
		c-0.1-0.2-0.2-0.4-0.3-0.6c-0.1-0.2-0.1-0.5-0.1-0.7c0-0.2,0-0.5,0.1-0.7c0.1-0.2,0.2-0.4,0.3-0.6c0.1-0.2,0.3-0.3,0.5-0.4
		c0.2-0.1,0.4-0.2,0.7-0.2c0.2,0,0.4,0,0.6,0.1c0.2,0.1,0.3,0.2,0.4,0.4h0v-1.8h1v4.9h-0.9L136.7,57.2L136.7,57.2z M136.6,55.5
		c0-0.1-0.1-0.3-0.1-0.4c-0.1-0.1-0.2-0.2-0.3-0.2c-0.1-0.1-0.2-0.1-0.4-0.1s-0.3,0-0.4,0.1c-0.1,0.1-0.2,0.1-0.3,0.3
		c-0.1,0.1-0.1,0.2-0.1,0.4c0,0.1,0,0.3,0,0.4c0,0.1,0,0.3,0,0.4c0,0.1,0.1,0.3,0.2,0.4s0.2,0.2,0.3,0.3s0.2,0.1,0.4,0.1
		c0.2,0,0.3,0,0.4-0.1c0.1-0.1,0.2-0.1,0.3-0.3s0.1-0.2,0.1-0.4c0-0.1,0-0.3,0-0.4S136.7,55.6,136.6,55.5z"/>
	<path class="st3" d="M139.3,56.8c0.1,0.1,0.4,0.2,0.6,0.2c0.2,0,0.4,0,0.5-0.1c0.1-0.1,0.2-0.2,0.3-0.3h0.9
		c-0.1,0.4-0.3,0.7-0.6,0.9c-0.3,0.2-0.6,0.3-1,0.3c-0.3,0-0.5,0-0.7-0.1c-0.2-0.1-0.4-0.2-0.6-0.4c-0.2-0.2-0.3-0.4-0.4-0.6
		c-0.1-0.2-0.1-0.5-0.1-0.7c0-0.3,0-0.5,0.1-0.7c0.1-0.2,0.2-0.4,0.4-0.6c0.2-0.2,0.3-0.3,0.6-0.4c0.2-0.1,0.5-0.1,0.7-0.1
		c0.3,0,0.6,0.1,0.8,0.2s0.4,0.3,0.5,0.5c0.1,0.2,0.2,0.4,0.3,0.7s0.1,0.5,0.1,0.8h-2.5C139.1,56.5,139.2,56.7,139.3,56.8z
		 M140.4,55c-0.1-0.1-0.3-0.2-0.5-0.2c-0.2,0-0.3,0-0.4,0.1c-0.1,0.1-0.2,0.1-0.2,0.2c-0.1,0.1-0.1,0.2-0.1,0.2c0,0.1,0,0.2,0,0.2
		h1.6C140.6,55.3,140.5,55.1,140.4,55z"/>
	<path class="st3" d="M146.5,52.8l1.8,4.9h-1.1l-0.4-1.1H145l-0.4,1.1h-1.1l1.8-4.9H146.5z M146.5,55.8l-0.6-1.8h0l-0.6,1.8H146.5z"
		/>
	<path class="st3" d="M149.5,52.8v1.8h0c0.1-0.2,0.3-0.4,0.5-0.4c0.2-0.1,0.4-0.1,0.6-0.1c0.3,0,0.5,0,0.6,0.1s0.3,0.2,0.4,0.3
		s0.2,0.3,0.2,0.5s0.1,0.4,0.1,0.6v2.2h-1v-2c0-0.3,0-0.5-0.1-0.6c-0.1-0.1-0.3-0.2-0.5-0.2c-0.3,0-0.5,0.1-0.6,0.2
		c-0.1,0.2-0.2,0.4-0.2,0.8v1.8h-1v-4.9H149.5z"/>
	<path class="st3" d="M152.5,55.1c0.1-0.2,0.2-0.4,0.4-0.6c0.2-0.2,0.3-0.3,0.6-0.4c0.2-0.1,0.5-0.1,0.7-0.1c0.3,0,0.5,0,0.8,0.1
		c0.2,0.1,0.4,0.2,0.6,0.4c0.2,0.2,0.3,0.4,0.4,0.6c0.1,0.2,0.1,0.5,0.1,0.8s0,0.5-0.1,0.8s-0.2,0.4-0.4,0.6
		c-0.2,0.2-0.4,0.3-0.6,0.4c-0.2,0.1-0.5,0.1-0.8,0.1c-0.3,0-0.5,0-0.7-0.1c-0.2-0.1-0.4-0.2-0.6-0.4c-0.2-0.2-0.3-0.4-0.4-0.6
		c-0.1-0.2-0.1-0.5-0.1-0.8S152.4,55.4,152.5,55.1z M153.4,56.3c0,0.1,0.1,0.3,0.1,0.4c0.1,0.1,0.2,0.2,0.3,0.3s0.2,0.1,0.4,0.1
		c0.2,0,0.3,0,0.4-0.1c0.1-0.1,0.2-0.1,0.3-0.3c0.1-0.1,0.1-0.2,0.1-0.4c0-0.1,0-0.3,0-0.4s0-0.3,0-0.4c0-0.1-0.1-0.3-0.1-0.4
		c-0.1-0.1-0.2-0.2-0.3-0.3c-0.1-0.1-0.2-0.1-0.4-0.1c-0.2,0-0.3,0-0.4,0.1c-0.1,0.1-0.2,0.2-0.3,0.3c-0.1,0.1-0.1,0.2-0.1,0.4
		c0,0.1,0,0.3,0,0.4S153.4,56.2,153.4,56.3z"/>
	<path class="st3" d="M157.5,54.2v0.7h0c0-0.1,0.1-0.2,0.2-0.3c0.1-0.1,0.2-0.2,0.3-0.2s0.2-0.1,0.3-0.2c0.1,0,0.2-0.1,0.4-0.1
		c0.1,0,0.1,0,0.2,0V55c0,0-0.1,0-0.2,0s-0.1,0-0.2,0c-0.2,0-0.3,0-0.4,0.1c-0.1,0.1-0.2,0.1-0.3,0.2c-0.1,0.1-0.1,0.2-0.2,0.4
		c0,0.1,0,0.3,0,0.4v1.6h-1v-3.5H157.5z"/>
	<path class="st3" d="M160.1,54.2v0.7h0c0-0.1,0.1-0.2,0.2-0.3c0.1-0.1,0.2-0.2,0.3-0.2s0.2-0.1,0.3-0.2c0.1,0,0.2-0.1,0.4-0.1
		c0.1,0,0.1,0,0.2,0V55c0,0-0.1,0-0.2,0s-0.1,0-0.2,0c-0.2,0-0.3,0-0.4,0.1c-0.1,0.1-0.2,0.1-0.3,0.2c-0.1,0.1-0.1,0.2-0.2,0.4
		c0,0.1,0,0.3,0,0.4v1.6h-1v-3.5H160.1z"/>
	<path class="st3" d="M161.6,55.1c0.1-0.2,0.2-0.4,0.4-0.6c0.2-0.2,0.3-0.3,0.6-0.4c0.2-0.1,0.5-0.1,0.7-0.1c0.3,0,0.5,0,0.8,0.1
		c0.2,0.1,0.4,0.2,0.6,0.4c0.2,0.2,0.3,0.4,0.4,0.6c0.1,0.2,0.1,0.5,0.1,0.8s0,0.5-0.1,0.8s-0.2,0.4-0.4,0.6
		c-0.2,0.2-0.4,0.3-0.6,0.4c-0.2,0.1-0.5,0.1-0.8,0.1c-0.3,0-0.5,0-0.7-0.1c-0.2-0.1-0.4-0.2-0.6-0.4c-0.2-0.2-0.3-0.4-0.4-0.6
		c-0.1-0.2-0.1-0.5-0.1-0.8S161.5,55.4,161.6,55.1z M162.5,56.3c0,0.1,0.1,0.3,0.1,0.4c0.1,0.1,0.2,0.2,0.3,0.3s0.2,0.1,0.4,0.1
		c0.2,0,0.3,0,0.4-0.1c0.1-0.1,0.2-0.1,0.3-0.3c0.1-0.1,0.1-0.2,0.1-0.4c0-0.1,0-0.3,0-0.4s0-0.3,0-0.4c0-0.1-0.1-0.3-0.1-0.4
		c-0.1-0.1-0.2-0.2-0.3-0.3c-0.1-0.1-0.2-0.1-0.4-0.1c-0.2,0-0.3,0-0.4,0.1c-0.1,0.1-0.2,0.2-0.3,0.3c-0.1,0.1-0.1,0.2-0.1,0.4
		c0,0.1,0,0.3,0,0.4S162.5,56.2,162.5,56.3z"/>
	<path class="st3" d="M168.8,58.7c-0.2,0.1-0.4,0.2-0.8,0.2c-0.1,0-0.2,0-0.3,0c-0.1,0-0.2,0-0.3,0v-0.8c0.1,0,0.2,0,0.3,0
		c0.1,0,0.2,0,0.3,0c0.1,0,0.2-0.1,0.3-0.1c0.1-0.1,0.1-0.2,0.1-0.3c0-0.1,0-0.1,0-0.2l-1.2-3.3h1l0.8,2.4h0l0.8-2.4h1l-1.5,4
		C169.1,58.4,169,58.6,168.8,58.7z"/>
	<path class="st3" d="M176,54.1c-0.1-0.1-0.1-0.2-0.2-0.3c-0.1-0.1-0.2-0.1-0.3-0.2c-0.1,0-0.2-0.1-0.4-0.1c-0.2,0-0.4,0-0.6,0.1
		c-0.2,0.1-0.3,0.2-0.4,0.4c-0.1,0.2-0.2,0.3-0.2,0.5c0,0.2-0.1,0.4-0.1,0.6c0,0.2,0,0.4,0.1,0.6c0,0.2,0.1,0.4,0.2,0.5
		c0.1,0.2,0.2,0.3,0.4,0.4c0.2,0.1,0.4,0.1,0.6,0.1c0.3,0,0.6-0.1,0.8-0.3c0.2-0.2,0.3-0.5,0.3-0.8h1c0,0.3-0.1,0.6-0.2,0.8
		c-0.1,0.2-0.3,0.5-0.4,0.6c-0.2,0.2-0.4,0.3-0.7,0.4c-0.2,0.1-0.5,0.1-0.8,0.1c-0.4,0-0.7-0.1-1-0.2s-0.5-0.3-0.8-0.5
		c-0.2-0.2-0.4-0.5-0.5-0.8c-0.1-0.3-0.2-0.6-0.2-1c0-0.4,0.1-0.7,0.2-1c0.1-0.3,0.3-0.6,0.5-0.8c0.2-0.2,0.5-0.4,0.8-0.5
		c0.3-0.1,0.6-0.2,1-0.2c0.3,0,0.5,0,0.8,0.1c0.2,0.1,0.5,0.2,0.6,0.3s0.3,0.3,0.5,0.5c0.1,0.2,0.2,0.5,0.2,0.7h-1
		C176.1,54.3,176.1,54.2,176,54.1z"/>
	<path class="st3" d="M178.7,54.2v0.7h0c0-0.1,0.1-0.2,0.2-0.3c0.1-0.1,0.2-0.2,0.3-0.2s0.2-0.1,0.3-0.2c0.1,0,0.2-0.1,0.4-0.1
		c0.1,0,0.1,0,0.2,0V55c0,0-0.1,0-0.2,0s-0.1,0-0.2,0c-0.2,0-0.3,0-0.4,0.1c-0.1,0.1-0.2,0.1-0.3,0.2c-0.1,0.1-0.1,0.2-0.2,0.4
		c0,0.1,0,0.3,0,0.4v1.6h-1v-3.5H178.7z"/>
	<path class="st3" d="M181.4,56.8c0.1,0.1,0.4,0.2,0.6,0.2c0.2,0,0.4,0,0.5-0.1c0.1-0.1,0.2-0.2,0.3-0.3h0.9
		c-0.1,0.4-0.3,0.7-0.6,0.9c-0.3,0.2-0.6,0.3-1,0.3c-0.3,0-0.5,0-0.7-0.1c-0.2-0.1-0.4-0.2-0.6-0.4c-0.2-0.2-0.3-0.4-0.4-0.6
		c-0.1-0.2-0.1-0.5-0.1-0.7c0-0.3,0-0.5,0.1-0.7c0.1-0.2,0.2-0.4,0.4-0.6c0.2-0.2,0.3-0.3,0.6-0.4c0.2-0.1,0.5-0.1,0.7-0.1
		c0.3,0,0.6,0.1,0.8,0.2s0.4,0.3,0.5,0.5c0.1,0.2,0.2,0.4,0.3,0.7s0.1,0.5,0.1,0.8h-2.5C181.2,56.5,181.2,56.7,181.4,56.8z
		 M182.5,55c-0.1-0.1-0.3-0.2-0.5-0.2c-0.2,0-0.3,0-0.4,0.1c-0.1,0.1-0.2,0.1-0.2,0.2c-0.1,0.1-0.1,0.2-0.1,0.2c0,0.1,0,0.2,0,0.2
		h1.6C182.7,55.3,182.6,55.1,182.5,55z M182.1,52.3l-0.7,1.2h0.7l1.1-1.2H182.1z"/>
	<path class="st3" d="M186.7,57.2c-0.1,0.2-0.3,0.3-0.4,0.4c-0.2,0.1-0.4,0.1-0.6,0.1c-0.3,0-0.5-0.1-0.7-0.2s-0.4-0.2-0.5-0.4
		c-0.1-0.2-0.2-0.4-0.3-0.6c-0.1-0.2-0.1-0.5-0.1-0.7c0-0.2,0-0.5,0.1-0.7c0.1-0.2,0.2-0.4,0.3-0.6c0.1-0.2,0.3-0.3,0.5-0.4
		c0.2-0.1,0.4-0.2,0.7-0.2c0.2,0,0.4,0,0.6,0.1c0.2,0.1,0.3,0.2,0.4,0.4h0v-1.8h1v4.9h-0.9L186.7,57.2L186.7,57.2z M186.6,55.5
		c0-0.1-0.1-0.3-0.1-0.4c-0.1-0.1-0.2-0.2-0.3-0.2c-0.1-0.1-0.2-0.1-0.4-0.1s-0.3,0-0.4,0.1c-0.1,0.1-0.2,0.1-0.3,0.3
		c-0.1,0.1-0.1,0.2-0.1,0.4c0,0.1,0,0.3,0,0.4c0,0.1,0,0.3,0,0.4c0,0.1,0.1,0.3,0.2,0.4s0.2,0.2,0.3,0.3s0.2,0.1,0.4,0.1
		c0.2,0,0.3,0,0.4-0.1c0.1-0.1,0.2-0.1,0.3-0.3s0.1-0.2,0.1-0.4c0-0.1,0-0.3,0-0.4S186.7,55.6,186.6,55.5z"/>
	<path class="st3" d="M188.3,53.6v-0.8h1v0.8H188.3z M189.3,54.2v3.5h-1v-3.5H189.3z"/>
	<path class="st3" d="M191.9,54.2v0.6h-0.7v1.7c0,0.2,0,0.3,0.1,0.3c0.1,0.1,0.2,0.1,0.3,0.1c0.1,0,0.1,0,0.2,0c0,0,0.1,0,0.1,0v0.7
		c-0.1,0-0.2,0-0.3,0c-0.1,0-0.2,0-0.3,0c-0.1,0-0.3,0-0.4,0s-0.3-0.1-0.4-0.1c-0.1-0.1-0.2-0.1-0.2-0.3c-0.1-0.1-0.1-0.3-0.1-0.4
		v-2.1h-0.6v-0.6h0.6v-1.1h1v1.1H191.9z"/>
	<path class="st3" d="M192.3,55.1c0.1-0.2,0.2-0.4,0.4-0.6c0.2-0.2,0.3-0.3,0.6-0.4c0.2-0.1,0.5-0.1,0.7-0.1c0.3,0,0.5,0,0.8,0.1
		c0.2,0.1,0.4,0.2,0.6,0.4c0.2,0.2,0.3,0.4,0.4,0.6c0.1,0.2,0.1,0.5,0.1,0.8s0,0.5-0.1,0.8s-0.2,0.4-0.4,0.6
		c-0.2,0.2-0.4,0.3-0.6,0.4c-0.2,0.1-0.5,0.1-0.8,0.1c-0.3,0-0.5,0-0.7-0.1c-0.2-0.1-0.4-0.2-0.6-0.4c-0.2-0.2-0.3-0.4-0.4-0.6
		c-0.1-0.2-0.1-0.5-0.1-0.8S192.2,55.4,192.3,55.1z M193.2,56.3c0,0.1,0.1,0.3,0.1,0.4c0.1,0.1,0.2,0.2,0.3,0.3s0.2,0.1,0.4,0.1
		c0.2,0,0.3,0,0.4-0.1c0.1-0.1,0.2-0.1,0.3-0.3c0.1-0.1,0.1-0.2,0.1-0.4c0-0.1,0-0.3,0-0.4s0-0.3,0-0.4c0-0.1-0.1-0.3-0.1-0.4
		c-0.1-0.1-0.2-0.2-0.3-0.3c-0.1-0.1-0.2-0.1-0.4-0.1c-0.2,0-0.3,0-0.4,0.1c-0.1,0.1-0.2,0.2-0.3,0.3c-0.1,0.1-0.1,0.2-0.1,0.4
		c0,0.1,0,0.3,0,0.4S193.2,56.2,193.2,56.3z"/>
</g>
</svg>
