<?xml version="1.0" encoding="utf-8"?>
<!-- Generator: Adobe Illustrator 24.0.2, SVG Export Plug-In . SVG Version: 6.00 Build 0)  -->
<svg version="1.1" id="Layer_1" xmlns="http://www.w3.org/2000/svg" xmlns:xlink="http://www.w3.org/1999/xlink" x="0px" y="0px"
	 viewBox="0 0 182.6 81.1" style="enable-background:new 0 0 182.6 81.1;" xml:space="preserve">
<style type="text/css">
	.st0{fill-rule:evenodd;clip-rule:evenodd;fill:#165494;}
	.st1{fill:#7B868C;}
</style>
<g>
	<g>
		<g>
			<path class="st0" d="M9.2,42.2c-0.8-0.4-1.7-0.5-2.5-0.5c-2.6,0-4.7,2.2-4.7,5.4c0,2.6,1.4,4.4,3.7,4.4c1.3,0,1.9-0.4,2.2-0.5
				l0.8-4.8H6.1l-0.2,0.8h1.9l-0.6,3.3c-0.3,0.1-0.7,0.4-1.6,0.4c-1.7,0-2.8-1.5-2.8-3.5c0-2.8,1.7-4.7,4-4.7c0.7,0,1.5,0.1,2.1,0.5
				L9.2,42.2z"/>
			<path class="st0" d="M10.6,51.4h0.8L12,48c0.2-1.2,0.7-2.8,1.9-2.8c0.2,0,0.4,0,0.6,0.1l0.2-0.9c-0.2,0-0.4-0.1-0.6-0.1
				c-0.8,0-1.3,0.5-1.6,1.2h0c0.1-0.2,0.1-0.6,0.1-1h-0.7c0,0.4-0.1,0.8-0.2,1.2L10.6,51.4z"/>
			<path class="st0" d="M21,44.5h-0.8l-0.6,3.3c-0.3,1.6-1,3.1-2.2,3.1c-0.7,0-1.1-0.5-1.1-1.3c0-0.5,0-0.8,0.1-1.2l0.7-3.8h-0.8
				l-0.7,3.6c-0.1,0.4-0.2,0.9-0.2,1.4c0,1.3,0.8,2,1.8,2c0.7,0,1.5-0.5,1.9-1.2h0c-0.1,0.2-0.1,0.6-0.1,1h0.7
				c0-0.3,0.1-0.6,0.1-1.1L21,44.5z"/>
			<path class="st0" d="M21.9,54.2h0.8l0.7-4.2h0c0.2,0.9,0.9,1.5,1.7,1.5c2,0,3-2.3,3-4.4c0-1.5-0.7-2.8-2-2.8
				c-0.8,0-1.5,0.5-1.9,1.2h0c0-0.3,0.1-0.6,0.1-1h-0.7c0,0.5-0.1,1.1-0.2,1.6L21.9,54.2z M23.6,48.6c0-1.5,0.8-3.6,2.2-3.6
				c1,0,1.4,0.9,1.4,2.1c0,1.6-0.7,3.7-2.2,3.7C24.1,50.8,23.6,49.7,23.6,48.6z"/>
			<path class="st0" d="M29.7,48.5c0,1.7,0.9,3,2.3,3c2,0,3.2-2,3.2-4.3c0-1.8-0.8-3-2.3-3C31,44.3,29.7,46.2,29.7,48.5z M30.5,48.7
				c0-1.8,0.8-3.6,2.4-3.6c1.1,0,1.6,0.9,1.6,2.2c0,1.6-0.8,3.5-2.4,3.5C31.1,50.8,30.5,49.9,30.5,48.7z"/>
		</g>
		<g>
			<path class="st0" d="M15.7,65l0.2-2.4l0.6-5.2H24l-2.1,19h-7.3l0.1-2h-0.1c-1.6,1.9-3.6,2.4-6.1,2.4c-1.8,0-3.2-0.4-4.2-1.2
				c-1.2-0.9-2.2-2.3-2.2-4c0-0.7,0.3-4.3,0.3-4.3c0-0.1,1.2-9.9,1.3-10h7L9.5,68.6c-0.3,2.1,0.8,3.6,2.4,3.8c1.5,0.2,3-0.9,3.3-3
				c0-0.1,0.1-0.2,0.1-0.3C15.4,68.6,15.7,65.2,15.7,65z"/>
			<path class="st0" d="M25.2,76.6l2.1-19.1h7.2l-0.3,2.4h0.1c1.4-1.9,3.3-2.9,5.8-2.9c1.9,0,3.4,0.4,4.6,1.2c1.4,0.9,2.1,2.2,2.3,4
				c0.1,0.8,0,2-0.2,3.6l-1.3,10.8h-7.5l1-8.7c0.2-1.8,0.3-2.9,0.3-3.2c-0.1-1.2-0.1-2.9-2.3-2.9c-2.7,0-3,2.3-3.3,4.7l-1.2,10.1
				H25.2z"/>
			<polygon class="st0" points="49,76.5 51.2,57.5 58.5,57.5 56.3,76.5 			"/>
			<path class="st0" d="M80.6,64.3h-7.5c0.1-0.9,0.3-2.6-1.6-2.9c-1.4-0.2-2.3,0.5-3.1,2c-0.6,1.1-0.9,3.5-1,4.8
				c-0.1,2.4,0.5,4.2,2.2,4.3c2.4,0.2,3.1-3.6,3-3.7l7.5-0.1c-1.5,5.5-5.1,8.2-10.7,8.3c-3.6,0-6.2-0.9-7.7-3
				c-1.2-1.5-1.7-3.4-1.6-5.7c0.2-3.4,1.3-6.1,3.4-8.2c2.2-2.2,5.1-3.3,8.7-3.4C79.5,56.8,80.8,61.7,80.6,64.3z"/>
			<path class="st0" d="M89.7,69.2c0.2,2.4,1.2,3.6,3.1,3.5c1.4-0.1,2.5-1.1,3.2-3c0.6-1.5,0.8-2.9,0.7-4.3c-0.2-2.8-1.2-4.2-3.1-4
				c-1.4,0.1-2.5,1.1-3.2,3.1C89.9,66,89.6,67.6,89.7,69.2z M82.4,68.1c0-3.2,1-5.7,3.1-7.7c2.2-2.2,5.2-3.2,9.1-3.2
				c3,0,5.3,0.7,7,2c1.8,1.4,2.6,3.5,2.6,6.2c0,2.9-0.9,5.5-2.6,7.6c-2.1,2.6-5.3,4-9.4,4c-2.9,0-5.3-0.7-7-2
				C83.3,73.3,82.4,71.1,82.4,68.1z"/>
			<path class="st0" d="M105.4,76.3l2.4-19.1l7.2,0.1l-0.3,2.5l0,0.2c1.5-2,3.8-3.2,6.3-3.1c3.2,0,5,1.3,5.8,3.3
				c1.6-2.1,4.1-3.2,6.7-3.2c4.3,0,6.1,2,6.4,5.7c0.1,0.6,0,1.6-0.2,3l-1.4,10.9l-7.4-0.1l1.2-9.1c0.2-1.4,0.3-2.8,0.3-3.2
				c0-1-0.4-2.4-2.2-2.4c-1.8,0-2.5,0.9-3.1,2.9l-1.5,11.9l-7.5-0.1l1.2-10.2c0.1-0.9,1.1-4.3-2-4.5c-1.9-0.1-2.8,1.3-3.1,3.2
				l-1.5,11.5L105.4,76.3z"/>
			<path class="st0" d="M149.8,64.4h6.2c0-0.3,0.1-0.5,0.1-0.7c0-0.8-0.2-1.5-0.7-2c-0.5-0.5-1.1-0.8-2-0.8
				C151.6,61,150.4,62.1,149.8,64.4z M155.4,70.2h6.9c-0.5,2-1.8,3.6-2.6,4.4c-1.8,1.7-4.4,2.5-7.9,2.5c-3.2,0-5.6-0.8-7.2-2.5
				c-1.5-1.5-2.2-3.5-2.2-6c0-4,1.3-7,3.9-9.1c2.1-1.7,4.6-2.6,7.4-2.6c2.4,0,4.5,0.6,6.2,1.9c2,1.5,3.1,3.7,3.1,6.5
				c0,1.3-0.1,2.4-0.4,3.3H149c0,2.5,0.2,4,2.8,4.1C154.1,72.9,154.9,71.1,155.4,70.2z"/>
			<path class="st0" d="M164.2,76.6l2-19.2l7.5,0.2l-0.3,2.5h0.1c1.3-3.3,6.1-3.4,6.7-3.2l-0.8,6.4c0,0-3.9-0.5-5.5,1.4
				c-0.7,0.8-1.4,1.9-1.6,3.8c0,0-0.9,7.9-0.9,8H164.2z"/>
		</g>
		<path class="st1" d="M91.7,11c-0.4-1.1-3.3-6-4.1-7c-1.2-1.3-1.8-1.1-2.4,0.4c-0.5,1.2-2.2,6.7-2.3,8c-0.1,1.5,0.2,2.7,1.4,2.4
			c2.1-0.5,4.1-0.8,6.5-1C92.3,13.7,92,11.9,91.7,11z M90.6,12.1c-0.2,0.3-0.8,0.1-2.8,0.4c-2,0.3-2.8,0.6-3.2,0.3
			c-0.3-0.2-0.3-0.3-0.3-1.3c0.1-0.9,1.1-3.8,1.5-5c0.5-1.3,0.8-1.4,1.6-0.2c0.7,1,2.6,3.6,3,4.5C90.8,11.5,90.9,11.8,90.6,12.1z"/>
		<path class="st1" d="M111,5.8c-0.2-1.5-1.3-2-2.7-1.1c-1.4,1-6,5.6-6.8,6.7c-1.1,1.6-1.5,3.1,1.1,3.8c0.9,0.2,4.4,1.5,6,2.3
			c1.8,0.9,2.5,0.1,2.9-2.1C111.6,13.6,111.3,7.4,111,5.8z M109.9,13.8c-0.1,0.4-0.1,1.2-0.5,1.5c-0.6,0.4-1.7-0.4-3.2-0.9
			c-1.8-0.6-2.6-0.6-2.9-1.1c-0.3-0.4,0.4-1.2,0.6-1.6c0.7-1.1,2.6-2.7,3.6-3.6c1.9-1.9,2.2-1.3,2.6,0.9
			C110.2,10.3,110.1,12.7,109.9,13.8z"/>
		<path class="st1" d="M130.1,17.6c-1.3,0.2-8,2.2-10.1,3.1c-1.8,0.8-3,2-1.7,3.4c0,0,2.6,2.5,3.2,3.1c0.7,0.8,2.1,2.5,2.8,3.4
			c1.2,1.6,2.3,0.5,3.4-1c0.9-1.3,4.2-7.9,4.6-9.5C132.6,18.2,131.9,17.3,130.1,17.6z M129.7,21.7c-0.5,1.3-2.6,5.2-3.1,6.1
			c-0.2,0.3-0.5,1-1.1,0.9c-0.5-0.1-1.5-1.6-2.3-2.5c-0.8-1-2.5-2.4-2.3-3.1c0.2-0.5,0.8-0.7,1.4-0.9c1-0.5,5-1.6,6.4-2
			C130.2,19.7,130.3,20.3,129.7,21.7z"/>
		<path class="st1" d="M58.9,24.3c-1.2-0.4-2.8-0.8-4.5-0.9c-1.8-0.1-2.3,0-1.5,1.8c0.7,1.6,1.8,3.2,2.6,4.3
			c1.7,2.1,2.5,1.8,3.1,0.8c0.5-0.9,1.9-2.8,2.3-3.3C62,25.7,61.3,25,58.9,24.3z M59.5,27.1c0,0-0.9,1.2-1.2,1.6
			c-0.7,1.1-1.4,0.4-2.2-0.7c-0.5-0.6-0.8-1.2-1.2-2c-1-1.8-0.8-1.7,0.8-1.4c0.9,0.1,1.3,0.2,2.6,0.6C60.2,25.9,60.1,26.3,59.5,27.1
			z"/>
		<path class="st1" d="M73,14.5c-1-1-3.1-2.5-4.8-3.5c-1.4-0.9-2.1-0.5-2.2,1.4c-0.1,1.7,0.2,4.1,0.4,5.6c0.3,2.2,1.2,3.7,2.6,2.7
			c0.8-0.6,3.3-2.1,4.2-2.4C74.4,17.6,74.7,16.2,73,14.5z M73.2,16.4c-0.2,0.5-0.5,0.7-1.3,1.1c-0.8,0.4-2.1,1.2-2.1,1.2
			c-0.7,0.4-0.9,0.5-1.4,0.4c-0.2,0-0.4-0.3-0.7-1.6c-0.3-1.3-0.4-1.7-0.4-3.4c0-1.6,0.4-1.9,1.9-1.1c1.5,0.8,2.3,1.5,3.2,2.2
			C73.1,15.8,73.3,16.1,73.2,16.4z"/>
		<path class="st1" d="M125.8,40.9c-17.7-33.4-57.6-29.8-71.5,2.5c-3.7,7.3,4.6,7.7,6.6,2.6c11.8-22.4,37.5-20.6,45.8-1.8
			c1.4,3.2,3.6,5.3,7.6,5.7h8.8C130.2,49.2,128.5,46,125.8,40.9z M121.9,47.9l-7.9-0.3c-2.8-0.3-2.6-1.3-4.7-5
			c-11.6-20.2-38.3-21.3-50.7,3.1c-1.4,3.5-5.4,2.8-3.2-1.9c13.5-31.2,51.4-34.7,68.9-2.1C126.5,45.6,125.7,47.4,121.9,47.9z"/>
	</g>
</g>
</svg>
